G04 MADE WITH FRITZING*
G04 WWW.FRITZING.ORG*
G04 DOUBLE SIDED*
G04 HOLES PLATED*
G04 CONTOUR ON CENTER OF CONTOUR VECTOR*
%ASAXBY*%
%FSLAX23Y23*%
%MOIN*%
%OFA0B0*%
%SFA1.0B1.0*%
%ADD10C,0.049370*%
%ADD11C,0.088000*%
%ADD12C,0.070000*%
%ADD13C,0.214724*%
%ADD14R,0.045433X0.041496*%
%ADD15R,0.001000X0.001000*%
%LNMASK0*%
G90*
G70*
G54D10*
X1345Y390D03*
X1132Y465D03*
G54D11*
X1920Y640D03*
X1920Y290D03*
G54D12*
X1732Y353D03*
X1732Y453D03*
X1732Y553D03*
G54D10*
X1257Y540D03*
G54D13*
X1382Y140D03*
X1382Y840D03*
X132Y140D03*
X132Y840D03*
G54D11*
X132Y390D03*
X132Y490D03*
X132Y590D03*
G54D14*
X1520Y427D03*
X1520Y353D03*
X1441Y390D03*
X1257Y427D03*
X1257Y353D03*
X1178Y390D03*
G54D15*
X1695Y588D02*
X1768Y588D01*
X1691Y587D02*
X1772Y587D01*
X1689Y586D02*
X1774Y586D01*
X1687Y585D02*
X1776Y585D01*
X1685Y584D02*
X1778Y584D01*
X1683Y583D02*
X1780Y583D01*
X1682Y582D02*
X1781Y582D01*
X1680Y581D02*
X1782Y581D01*
X1679Y580D02*
X1784Y580D01*
X1678Y579D02*
X1785Y579D01*
X1677Y578D02*
X1786Y578D01*
X1676Y577D02*
X1787Y577D01*
X1675Y576D02*
X1788Y576D01*
X1675Y575D02*
X1788Y575D01*
X1674Y574D02*
X1789Y574D01*
X1673Y573D02*
X1790Y573D01*
X1672Y572D02*
X1790Y572D01*
X1672Y571D02*
X1791Y571D01*
X1671Y570D02*
X1792Y570D01*
X1671Y569D02*
X1792Y569D01*
X1670Y568D02*
X1726Y568D01*
X1737Y568D02*
X1793Y568D01*
X1670Y567D02*
X1723Y567D01*
X1740Y567D02*
X1793Y567D01*
X1669Y566D02*
X1722Y566D01*
X1741Y566D02*
X1794Y566D01*
X1669Y565D02*
X1720Y565D01*
X1742Y565D02*
X1794Y565D01*
X1669Y564D02*
X1719Y564D01*
X1743Y564D02*
X1794Y564D01*
X1668Y563D02*
X1719Y563D01*
X1744Y563D02*
X1795Y563D01*
X1668Y562D02*
X1718Y562D01*
X1745Y562D02*
X1795Y562D01*
X1668Y561D02*
X1718Y561D01*
X1745Y561D02*
X1795Y561D01*
X1668Y560D02*
X1717Y560D01*
X1746Y560D02*
X1795Y560D01*
X1667Y559D02*
X1717Y559D01*
X1746Y559D02*
X1795Y559D01*
X1667Y558D02*
X1716Y558D01*
X1746Y558D02*
X1796Y558D01*
X1667Y557D02*
X1716Y557D01*
X1747Y557D02*
X1796Y557D01*
X1667Y556D02*
X1716Y556D01*
X1747Y556D02*
X1796Y556D01*
X1667Y555D02*
X1716Y555D01*
X1747Y555D02*
X1796Y555D01*
X1667Y554D02*
X1716Y554D01*
X1747Y554D02*
X1796Y554D01*
X1667Y553D02*
X1716Y553D01*
X1747Y553D02*
X1796Y553D01*
X1667Y552D02*
X1716Y552D01*
X1747Y552D02*
X1796Y552D01*
X1667Y551D02*
X1716Y551D01*
X1747Y551D02*
X1796Y551D01*
X1667Y550D02*
X1716Y550D01*
X1746Y550D02*
X1796Y550D01*
X1667Y549D02*
X1717Y549D01*
X1746Y549D02*
X1795Y549D01*
X1668Y548D02*
X1717Y548D01*
X1746Y548D02*
X1795Y548D01*
X1668Y547D02*
X1717Y547D01*
X1745Y547D02*
X1795Y547D01*
X1668Y546D02*
X1718Y546D01*
X1745Y546D02*
X1795Y546D01*
X1668Y545D02*
X1718Y545D01*
X1744Y545D02*
X1795Y545D01*
X1668Y544D02*
X1719Y544D01*
X1744Y544D02*
X1794Y544D01*
X1669Y543D02*
X1720Y543D01*
X1743Y543D02*
X1794Y543D01*
X1669Y542D02*
X1721Y542D01*
X1742Y542D02*
X1794Y542D01*
X1670Y541D02*
X1723Y541D01*
X1740Y541D02*
X1793Y541D01*
X1670Y540D02*
X1725Y540D01*
X1738Y540D02*
X1793Y540D01*
X1671Y539D02*
X1730Y539D01*
X1733Y539D02*
X1792Y539D01*
X1671Y538D02*
X1792Y538D01*
X1672Y537D02*
X1791Y537D01*
X1672Y536D02*
X1791Y536D01*
X1673Y535D02*
X1790Y535D01*
X1674Y534D02*
X1789Y534D01*
X1674Y533D02*
X1789Y533D01*
X1675Y532D02*
X1788Y532D01*
X1676Y531D02*
X1787Y531D01*
X1677Y530D02*
X1786Y530D01*
X1678Y529D02*
X1785Y529D01*
X1679Y528D02*
X1784Y528D01*
X1680Y527D02*
X1783Y527D01*
X1681Y526D02*
X1781Y526D01*
X1683Y525D02*
X1780Y525D01*
X1684Y524D02*
X1778Y524D01*
X1686Y523D02*
X1777Y523D01*
X1688Y522D02*
X1775Y522D01*
X1691Y521D02*
X1772Y521D01*
X1694Y520D02*
X1769Y520D01*
X1700Y519D02*
X1763Y519D01*
X1694Y488D02*
X1768Y488D01*
X1691Y487D02*
X1772Y487D01*
X1688Y486D02*
X1774Y486D01*
X1686Y485D02*
X1776Y485D01*
X1685Y484D02*
X1778Y484D01*
X1683Y483D02*
X1780Y483D01*
X1682Y482D02*
X1781Y482D01*
X1680Y481D02*
X1783Y481D01*
X1679Y480D02*
X1784Y480D01*
X1678Y479D02*
X1785Y479D01*
X1677Y478D02*
X1786Y478D01*
X1676Y477D02*
X1787Y477D01*
X1675Y476D02*
X1788Y476D01*
X1674Y475D02*
X1788Y475D01*
X1674Y474D02*
X1789Y474D01*
X1673Y473D02*
X1790Y473D01*
X1672Y472D02*
X1791Y472D01*
X1672Y471D02*
X1791Y471D01*
X1671Y470D02*
X1792Y470D01*
X1671Y469D02*
X1792Y469D01*
X1670Y468D02*
X1725Y468D01*
X1738Y468D02*
X1793Y468D01*
X1670Y467D02*
X1723Y467D01*
X1740Y467D02*
X1793Y467D01*
X1669Y466D02*
X1722Y466D01*
X1741Y466D02*
X1794Y466D01*
X1669Y465D02*
X1720Y465D01*
X1743Y465D02*
X1794Y465D01*
X1669Y464D02*
X1719Y464D01*
X1743Y464D02*
X1794Y464D01*
X1668Y463D02*
X1719Y463D01*
X1744Y463D02*
X1795Y463D01*
X1668Y462D02*
X1718Y462D01*
X1745Y462D02*
X1795Y462D01*
X1668Y461D02*
X1717Y461D01*
X1745Y461D02*
X1795Y461D01*
X1668Y460D02*
X1717Y460D01*
X1746Y460D02*
X1795Y460D01*
X1667Y459D02*
X1717Y459D01*
X1746Y459D02*
X1795Y459D01*
X1667Y458D02*
X1716Y458D01*
X1746Y458D02*
X1796Y458D01*
X1667Y457D02*
X1716Y457D01*
X1747Y457D02*
X1796Y457D01*
X1667Y456D02*
X1716Y456D01*
X1747Y456D02*
X1796Y456D01*
X1667Y455D02*
X1716Y455D01*
X1747Y455D02*
X1796Y455D01*
X1667Y454D02*
X1716Y454D01*
X1747Y454D02*
X1796Y454D01*
X1667Y453D02*
X1716Y453D01*
X1747Y453D02*
X1796Y453D01*
X1667Y452D02*
X1716Y452D01*
X1747Y452D02*
X1796Y452D01*
X1667Y451D02*
X1716Y451D01*
X1747Y451D02*
X1796Y451D01*
X1667Y450D02*
X1716Y450D01*
X1746Y450D02*
X1796Y450D01*
X1667Y449D02*
X1717Y449D01*
X1746Y449D02*
X1795Y449D01*
X1668Y448D02*
X1717Y448D01*
X1746Y448D02*
X1795Y448D01*
X1668Y447D02*
X1717Y447D01*
X1745Y447D02*
X1795Y447D01*
X1668Y446D02*
X1718Y446D01*
X1745Y446D02*
X1795Y446D01*
X1668Y445D02*
X1719Y445D01*
X1744Y445D02*
X1795Y445D01*
X1669Y444D02*
X1719Y444D01*
X1744Y444D02*
X1794Y444D01*
X1669Y443D02*
X1720Y443D01*
X1743Y443D02*
X1794Y443D01*
X1669Y442D02*
X1721Y442D01*
X1741Y442D02*
X1794Y442D01*
X1670Y441D02*
X1723Y441D01*
X1740Y441D02*
X1793Y441D01*
X1670Y440D02*
X1725Y440D01*
X1738Y440D02*
X1793Y440D01*
X1671Y439D02*
X1730Y439D01*
X1732Y439D02*
X1792Y439D01*
X1671Y438D02*
X1792Y438D01*
X1672Y437D02*
X1791Y437D01*
X1672Y436D02*
X1791Y436D01*
X1673Y435D02*
X1790Y435D01*
X1674Y434D02*
X1789Y434D01*
X1674Y433D02*
X1788Y433D01*
X1675Y432D02*
X1788Y432D01*
X1676Y431D02*
X1787Y431D01*
X1677Y430D02*
X1786Y430D01*
X1678Y429D02*
X1785Y429D01*
X1679Y428D02*
X1784Y428D01*
X1680Y427D02*
X1783Y427D01*
X1682Y426D02*
X1781Y426D01*
X1683Y425D02*
X1780Y425D01*
X1684Y424D02*
X1778Y424D01*
X1686Y423D02*
X1777Y423D01*
X1688Y422D02*
X1775Y422D01*
X1691Y421D02*
X1772Y421D01*
X1694Y420D02*
X1769Y420D01*
X1701Y419D02*
X1762Y419D01*
X1694Y388D02*
X1769Y388D01*
X1691Y387D02*
X1772Y387D01*
X1688Y386D02*
X1775Y386D01*
X1686Y385D02*
X1777Y385D01*
X1685Y384D02*
X1778Y384D01*
X1683Y383D02*
X1780Y383D01*
X1682Y382D02*
X1781Y382D01*
X1680Y381D02*
X1783Y381D01*
X1679Y380D02*
X1784Y380D01*
X1678Y379D02*
X1785Y379D01*
X1677Y378D02*
X1786Y378D01*
X1676Y377D02*
X1787Y377D01*
X1675Y376D02*
X1788Y376D01*
X1674Y375D02*
X1788Y375D01*
X1674Y374D02*
X1789Y374D01*
X1673Y373D02*
X1790Y373D01*
X1672Y372D02*
X1791Y372D01*
X1672Y371D02*
X1791Y371D01*
X1671Y370D02*
X1792Y370D01*
X1671Y369D02*
X1792Y369D01*
X1670Y368D02*
X1725Y368D01*
X1738Y368D02*
X1793Y368D01*
X1670Y367D02*
X1723Y367D01*
X1740Y367D02*
X1793Y367D01*
X1669Y366D02*
X1721Y366D01*
X1741Y366D02*
X1794Y366D01*
X1669Y365D02*
X1720Y365D01*
X1743Y365D02*
X1794Y365D01*
X1669Y364D02*
X1719Y364D01*
X1743Y364D02*
X1794Y364D01*
X1668Y363D02*
X1719Y363D01*
X1744Y363D02*
X1795Y363D01*
X1668Y362D02*
X1718Y362D01*
X1745Y362D02*
X1795Y362D01*
X1668Y361D02*
X1717Y361D01*
X1745Y361D02*
X1795Y361D01*
X1668Y360D02*
X1717Y360D01*
X1746Y360D02*
X1795Y360D01*
X1667Y359D02*
X1717Y359D01*
X1746Y359D02*
X1795Y359D01*
X1667Y358D02*
X1716Y358D01*
X1746Y358D02*
X1796Y358D01*
X1667Y357D02*
X1716Y357D01*
X1747Y357D02*
X1796Y357D01*
X1667Y356D02*
X1716Y356D01*
X1747Y356D02*
X1796Y356D01*
X1667Y355D02*
X1716Y355D01*
X1747Y355D02*
X1796Y355D01*
X1667Y354D02*
X1716Y354D01*
X1747Y354D02*
X1796Y354D01*
X1667Y353D02*
X1716Y353D01*
X1747Y353D02*
X1796Y353D01*
X1667Y352D02*
X1716Y352D01*
X1747Y352D02*
X1796Y352D01*
X1667Y351D02*
X1716Y351D01*
X1747Y351D02*
X1796Y351D01*
X1667Y350D02*
X1716Y350D01*
X1746Y350D02*
X1796Y350D01*
X1667Y349D02*
X1717Y349D01*
X1746Y349D02*
X1795Y349D01*
X1668Y348D02*
X1717Y348D01*
X1746Y348D02*
X1795Y348D01*
X1668Y347D02*
X1717Y347D01*
X1745Y347D02*
X1795Y347D01*
X1668Y346D02*
X1718Y346D01*
X1745Y346D02*
X1795Y346D01*
X1668Y345D02*
X1719Y345D01*
X1744Y345D02*
X1795Y345D01*
X1669Y344D02*
X1719Y344D01*
X1743Y344D02*
X1794Y344D01*
X1669Y343D02*
X1720Y343D01*
X1743Y343D02*
X1794Y343D01*
X1669Y342D02*
X1721Y342D01*
X1741Y342D02*
X1794Y342D01*
X1670Y341D02*
X1723Y341D01*
X1740Y341D02*
X1793Y341D01*
X1670Y340D02*
X1725Y340D01*
X1738Y340D02*
X1793Y340D01*
X1671Y339D02*
X1792Y339D01*
X1671Y338D02*
X1792Y338D01*
X1672Y337D02*
X1791Y337D01*
X1672Y336D02*
X1791Y336D01*
X1673Y335D02*
X1790Y335D01*
X1674Y334D02*
X1789Y334D01*
X1674Y333D02*
X1788Y333D01*
X1675Y332D02*
X1788Y332D01*
X1676Y331D02*
X1787Y331D01*
X1677Y330D02*
X1786Y330D01*
X1678Y329D02*
X1785Y329D01*
X1679Y328D02*
X1784Y328D01*
X1680Y327D02*
X1783Y327D01*
X1682Y326D02*
X1781Y326D01*
X1683Y325D02*
X1780Y325D01*
X1685Y324D02*
X1778Y324D01*
X1686Y323D02*
X1777Y323D01*
X1688Y322D02*
X1774Y322D01*
X1691Y321D02*
X1772Y321D01*
X1694Y320D02*
X1769Y320D01*
D02*
G04 End of Mask0*
M02*