G04 MADE WITH FRITZING*
G04 WWW.FRITZING.ORG*
G04 DOUBLE SIDED*
G04 HOLES PLATED*
G04 CONTOUR ON CENTER OF CONTOUR VECTOR*
%ASAXBY*%
%FSLAX23Y23*%
%MOIN*%
%OFA0B0*%
%SFA1.0B1.0*%
%ADD10R,0.001000X0.001000*%
%LNSILK0*%
G90*
G70*
G54D10*
X0Y981D02*
X2090Y981D01*
X0Y980D02*
X2090Y980D01*
X0Y979D02*
X2090Y979D01*
X0Y978D02*
X2090Y978D01*
X0Y977D02*
X2090Y977D01*
X0Y976D02*
X2090Y976D01*
X0Y975D02*
X2090Y975D01*
X0Y974D02*
X2090Y974D01*
X0Y973D02*
X7Y973D01*
X2083Y973D02*
X2090Y973D01*
X0Y972D02*
X7Y972D01*
X2083Y972D02*
X2090Y972D01*
X0Y971D02*
X7Y971D01*
X2083Y971D02*
X2090Y971D01*
X0Y970D02*
X7Y970D01*
X2083Y970D02*
X2090Y970D01*
X0Y969D02*
X7Y969D01*
X2083Y969D02*
X2090Y969D01*
X0Y968D02*
X7Y968D01*
X2083Y968D02*
X2090Y968D01*
X0Y967D02*
X7Y967D01*
X2083Y967D02*
X2090Y967D01*
X0Y966D02*
X7Y966D01*
X2083Y966D02*
X2090Y966D01*
X0Y965D02*
X7Y965D01*
X2083Y965D02*
X2090Y965D01*
X0Y964D02*
X7Y964D01*
X2083Y964D02*
X2090Y964D01*
X0Y963D02*
X7Y963D01*
X2083Y963D02*
X2090Y963D01*
X0Y962D02*
X7Y962D01*
X2083Y962D02*
X2090Y962D01*
X0Y961D02*
X7Y961D01*
X2083Y961D02*
X2090Y961D01*
X0Y960D02*
X7Y960D01*
X2083Y960D02*
X2090Y960D01*
X0Y959D02*
X7Y959D01*
X2083Y959D02*
X2090Y959D01*
X0Y958D02*
X7Y958D01*
X2083Y958D02*
X2090Y958D01*
X0Y957D02*
X7Y957D01*
X2083Y957D02*
X2090Y957D01*
X0Y956D02*
X7Y956D01*
X2083Y956D02*
X2090Y956D01*
X0Y955D02*
X7Y955D01*
X2083Y955D02*
X2090Y955D01*
X0Y954D02*
X7Y954D01*
X2083Y954D02*
X2090Y954D01*
X0Y953D02*
X7Y953D01*
X2083Y953D02*
X2090Y953D01*
X0Y952D02*
X7Y952D01*
X2083Y952D02*
X2090Y952D01*
X0Y951D02*
X7Y951D01*
X2083Y951D02*
X2090Y951D01*
X0Y950D02*
X7Y950D01*
X2083Y950D02*
X2090Y950D01*
X0Y949D02*
X7Y949D01*
X2083Y949D02*
X2090Y949D01*
X0Y948D02*
X7Y948D01*
X2083Y948D02*
X2090Y948D01*
X0Y947D02*
X7Y947D01*
X2083Y947D02*
X2090Y947D01*
X0Y946D02*
X7Y946D01*
X2083Y946D02*
X2090Y946D01*
X0Y945D02*
X7Y945D01*
X2083Y945D02*
X2090Y945D01*
X0Y944D02*
X7Y944D01*
X2083Y944D02*
X2090Y944D01*
X0Y943D02*
X7Y943D01*
X2083Y943D02*
X2090Y943D01*
X0Y942D02*
X7Y942D01*
X2083Y942D02*
X2090Y942D01*
X0Y941D02*
X7Y941D01*
X2083Y941D02*
X2090Y941D01*
X0Y940D02*
X7Y940D01*
X2083Y940D02*
X2090Y940D01*
X0Y939D02*
X7Y939D01*
X2083Y939D02*
X2090Y939D01*
X0Y938D02*
X7Y938D01*
X2083Y938D02*
X2090Y938D01*
X0Y937D02*
X7Y937D01*
X2083Y937D02*
X2090Y937D01*
X0Y936D02*
X7Y936D01*
X2083Y936D02*
X2090Y936D01*
X0Y935D02*
X7Y935D01*
X2083Y935D02*
X2090Y935D01*
X0Y934D02*
X7Y934D01*
X2083Y934D02*
X2090Y934D01*
X0Y933D02*
X7Y933D01*
X2083Y933D02*
X2090Y933D01*
X0Y932D02*
X7Y932D01*
X2083Y932D02*
X2090Y932D01*
X0Y931D02*
X7Y931D01*
X2083Y931D02*
X2090Y931D01*
X0Y930D02*
X7Y930D01*
X2083Y930D02*
X2090Y930D01*
X0Y929D02*
X7Y929D01*
X2083Y929D02*
X2090Y929D01*
X0Y928D02*
X7Y928D01*
X2083Y928D02*
X2090Y928D01*
X0Y927D02*
X7Y927D01*
X2083Y927D02*
X2090Y927D01*
X0Y926D02*
X7Y926D01*
X2083Y926D02*
X2090Y926D01*
X0Y925D02*
X7Y925D01*
X2083Y925D02*
X2090Y925D01*
X0Y924D02*
X7Y924D01*
X2083Y924D02*
X2090Y924D01*
X0Y923D02*
X7Y923D01*
X2083Y923D02*
X2090Y923D01*
X0Y922D02*
X7Y922D01*
X2083Y922D02*
X2090Y922D01*
X0Y921D02*
X7Y921D01*
X2083Y921D02*
X2090Y921D01*
X0Y920D02*
X7Y920D01*
X2083Y920D02*
X2090Y920D01*
X0Y919D02*
X7Y919D01*
X2083Y919D02*
X2090Y919D01*
X0Y918D02*
X7Y918D01*
X2083Y918D02*
X2090Y918D01*
X0Y917D02*
X7Y917D01*
X2083Y917D02*
X2090Y917D01*
X0Y916D02*
X7Y916D01*
X2083Y916D02*
X2090Y916D01*
X0Y915D02*
X7Y915D01*
X2083Y915D02*
X2090Y915D01*
X0Y914D02*
X7Y914D01*
X2083Y914D02*
X2090Y914D01*
X0Y913D02*
X7Y913D01*
X2083Y913D02*
X2090Y913D01*
X0Y912D02*
X7Y912D01*
X2083Y912D02*
X2090Y912D01*
X0Y911D02*
X7Y911D01*
X2083Y911D02*
X2090Y911D01*
X0Y910D02*
X7Y910D01*
X2083Y910D02*
X2090Y910D01*
X0Y909D02*
X7Y909D01*
X2083Y909D02*
X2090Y909D01*
X0Y908D02*
X7Y908D01*
X2083Y908D02*
X2090Y908D01*
X0Y907D02*
X7Y907D01*
X2083Y907D02*
X2090Y907D01*
X0Y906D02*
X7Y906D01*
X2083Y906D02*
X2090Y906D01*
X0Y905D02*
X7Y905D01*
X2083Y905D02*
X2090Y905D01*
X0Y904D02*
X7Y904D01*
X2083Y904D02*
X2090Y904D01*
X0Y903D02*
X7Y903D01*
X2083Y903D02*
X2090Y903D01*
X0Y902D02*
X7Y902D01*
X2083Y902D02*
X2090Y902D01*
X0Y901D02*
X7Y901D01*
X2083Y901D02*
X2090Y901D01*
X0Y900D02*
X7Y900D01*
X2083Y900D02*
X2090Y900D01*
X0Y899D02*
X7Y899D01*
X2083Y899D02*
X2090Y899D01*
X0Y898D02*
X7Y898D01*
X2083Y898D02*
X2090Y898D01*
X0Y897D02*
X7Y897D01*
X2083Y897D02*
X2090Y897D01*
X0Y896D02*
X7Y896D01*
X2083Y896D02*
X2090Y896D01*
X0Y895D02*
X7Y895D01*
X2083Y895D02*
X2090Y895D01*
X0Y894D02*
X7Y894D01*
X2083Y894D02*
X2090Y894D01*
X0Y893D02*
X7Y893D01*
X2083Y893D02*
X2090Y893D01*
X0Y892D02*
X7Y892D01*
X2083Y892D02*
X2090Y892D01*
X0Y891D02*
X7Y891D01*
X2083Y891D02*
X2090Y891D01*
X0Y890D02*
X7Y890D01*
X2083Y890D02*
X2090Y890D01*
X0Y889D02*
X7Y889D01*
X2083Y889D02*
X2090Y889D01*
X0Y888D02*
X7Y888D01*
X2083Y888D02*
X2090Y888D01*
X0Y887D02*
X7Y887D01*
X2083Y887D02*
X2090Y887D01*
X0Y886D02*
X7Y886D01*
X2083Y886D02*
X2090Y886D01*
X0Y885D02*
X7Y885D01*
X2083Y885D02*
X2090Y885D01*
X0Y884D02*
X7Y884D01*
X2083Y884D02*
X2090Y884D01*
X0Y883D02*
X7Y883D01*
X2083Y883D02*
X2090Y883D01*
X0Y882D02*
X7Y882D01*
X2083Y882D02*
X2090Y882D01*
X0Y881D02*
X7Y881D01*
X2083Y881D02*
X2090Y881D01*
X0Y880D02*
X7Y880D01*
X2083Y880D02*
X2090Y880D01*
X0Y879D02*
X7Y879D01*
X2083Y879D02*
X2090Y879D01*
X0Y878D02*
X7Y878D01*
X2083Y878D02*
X2090Y878D01*
X0Y877D02*
X7Y877D01*
X2083Y877D02*
X2090Y877D01*
X0Y876D02*
X7Y876D01*
X2083Y876D02*
X2090Y876D01*
X0Y875D02*
X7Y875D01*
X2083Y875D02*
X2090Y875D01*
X0Y874D02*
X7Y874D01*
X2083Y874D02*
X2090Y874D01*
X0Y873D02*
X7Y873D01*
X2083Y873D02*
X2090Y873D01*
X0Y872D02*
X7Y872D01*
X2083Y872D02*
X2090Y872D01*
X0Y871D02*
X7Y871D01*
X2083Y871D02*
X2090Y871D01*
X0Y870D02*
X7Y870D01*
X2083Y870D02*
X2090Y870D01*
X0Y869D02*
X7Y869D01*
X2083Y869D02*
X2090Y869D01*
X0Y868D02*
X7Y868D01*
X2083Y868D02*
X2090Y868D01*
X0Y867D02*
X7Y867D01*
X2083Y867D02*
X2090Y867D01*
X0Y866D02*
X7Y866D01*
X2083Y866D02*
X2090Y866D01*
X0Y865D02*
X7Y865D01*
X2083Y865D02*
X2090Y865D01*
X0Y864D02*
X7Y864D01*
X2083Y864D02*
X2090Y864D01*
X0Y863D02*
X7Y863D01*
X2083Y863D02*
X2090Y863D01*
X0Y862D02*
X7Y862D01*
X2083Y862D02*
X2090Y862D01*
X0Y861D02*
X7Y861D01*
X2083Y861D02*
X2090Y861D01*
X0Y860D02*
X7Y860D01*
X2083Y860D02*
X2090Y860D01*
X0Y859D02*
X7Y859D01*
X2083Y859D02*
X2090Y859D01*
X0Y858D02*
X7Y858D01*
X2083Y858D02*
X2090Y858D01*
X0Y857D02*
X7Y857D01*
X2083Y857D02*
X2090Y857D01*
X0Y856D02*
X7Y856D01*
X2083Y856D02*
X2090Y856D01*
X0Y855D02*
X7Y855D01*
X2083Y855D02*
X2090Y855D01*
X0Y854D02*
X7Y854D01*
X2083Y854D02*
X2090Y854D01*
X0Y853D02*
X7Y853D01*
X2083Y853D02*
X2090Y853D01*
X0Y852D02*
X7Y852D01*
X2083Y852D02*
X2090Y852D01*
X0Y851D02*
X7Y851D01*
X2083Y851D02*
X2090Y851D01*
X0Y850D02*
X7Y850D01*
X2083Y850D02*
X2090Y850D01*
X0Y849D02*
X7Y849D01*
X2083Y849D02*
X2090Y849D01*
X0Y848D02*
X7Y848D01*
X2083Y848D02*
X2090Y848D01*
X0Y847D02*
X7Y847D01*
X2083Y847D02*
X2090Y847D01*
X0Y846D02*
X7Y846D01*
X2083Y846D02*
X2090Y846D01*
X0Y845D02*
X7Y845D01*
X2083Y845D02*
X2090Y845D01*
X0Y844D02*
X7Y844D01*
X2083Y844D02*
X2090Y844D01*
X0Y843D02*
X7Y843D01*
X2083Y843D02*
X2090Y843D01*
X0Y842D02*
X7Y842D01*
X2083Y842D02*
X2090Y842D01*
X0Y841D02*
X7Y841D01*
X2083Y841D02*
X2090Y841D01*
X0Y840D02*
X7Y840D01*
X2083Y840D02*
X2090Y840D01*
X0Y839D02*
X7Y839D01*
X2083Y839D02*
X2090Y839D01*
X0Y838D02*
X7Y838D01*
X2083Y838D02*
X2090Y838D01*
X0Y837D02*
X7Y837D01*
X2083Y837D02*
X2090Y837D01*
X0Y836D02*
X7Y836D01*
X2083Y836D02*
X2090Y836D01*
X0Y835D02*
X7Y835D01*
X2083Y835D02*
X2090Y835D01*
X0Y834D02*
X7Y834D01*
X2083Y834D02*
X2090Y834D01*
X0Y833D02*
X7Y833D01*
X2083Y833D02*
X2090Y833D01*
X0Y832D02*
X7Y832D01*
X2083Y832D02*
X2090Y832D01*
X0Y831D02*
X7Y831D01*
X2083Y831D02*
X2090Y831D01*
X0Y830D02*
X7Y830D01*
X2083Y830D02*
X2090Y830D01*
X0Y829D02*
X7Y829D01*
X2083Y829D02*
X2090Y829D01*
X0Y828D02*
X7Y828D01*
X2083Y828D02*
X2090Y828D01*
X0Y827D02*
X7Y827D01*
X2083Y827D02*
X2090Y827D01*
X0Y826D02*
X7Y826D01*
X2083Y826D02*
X2090Y826D01*
X0Y825D02*
X7Y825D01*
X2083Y825D02*
X2090Y825D01*
X0Y824D02*
X7Y824D01*
X2083Y824D02*
X2090Y824D01*
X0Y823D02*
X7Y823D01*
X2083Y823D02*
X2090Y823D01*
X0Y822D02*
X7Y822D01*
X2083Y822D02*
X2090Y822D01*
X0Y821D02*
X7Y821D01*
X2083Y821D02*
X2090Y821D01*
X0Y820D02*
X7Y820D01*
X2083Y820D02*
X2090Y820D01*
X0Y819D02*
X7Y819D01*
X2083Y819D02*
X2090Y819D01*
X0Y818D02*
X7Y818D01*
X2083Y818D02*
X2090Y818D01*
X0Y817D02*
X7Y817D01*
X2083Y817D02*
X2090Y817D01*
X0Y816D02*
X7Y816D01*
X2083Y816D02*
X2090Y816D01*
X0Y815D02*
X7Y815D01*
X2083Y815D02*
X2090Y815D01*
X0Y814D02*
X7Y814D01*
X2083Y814D02*
X2090Y814D01*
X0Y813D02*
X7Y813D01*
X2083Y813D02*
X2090Y813D01*
X0Y812D02*
X7Y812D01*
X2083Y812D02*
X2090Y812D01*
X0Y811D02*
X7Y811D01*
X2083Y811D02*
X2090Y811D01*
X0Y810D02*
X7Y810D01*
X2083Y810D02*
X2090Y810D01*
X0Y809D02*
X7Y809D01*
X2083Y809D02*
X2090Y809D01*
X0Y808D02*
X7Y808D01*
X2083Y808D02*
X2090Y808D01*
X0Y807D02*
X7Y807D01*
X2083Y807D02*
X2090Y807D01*
X0Y806D02*
X7Y806D01*
X2083Y806D02*
X2090Y806D01*
X0Y805D02*
X7Y805D01*
X2083Y805D02*
X2090Y805D01*
X0Y804D02*
X7Y804D01*
X2083Y804D02*
X2090Y804D01*
X0Y803D02*
X7Y803D01*
X2083Y803D02*
X2090Y803D01*
X0Y802D02*
X7Y802D01*
X2083Y802D02*
X2090Y802D01*
X0Y801D02*
X7Y801D01*
X2083Y801D02*
X2090Y801D01*
X0Y800D02*
X7Y800D01*
X2083Y800D02*
X2090Y800D01*
X0Y799D02*
X7Y799D01*
X2083Y799D02*
X2090Y799D01*
X0Y798D02*
X7Y798D01*
X2083Y798D02*
X2090Y798D01*
X0Y797D02*
X7Y797D01*
X2083Y797D02*
X2090Y797D01*
X0Y796D02*
X7Y796D01*
X2083Y796D02*
X2090Y796D01*
X0Y795D02*
X7Y795D01*
X2083Y795D02*
X2090Y795D01*
X0Y794D02*
X7Y794D01*
X2083Y794D02*
X2090Y794D01*
X0Y793D02*
X7Y793D01*
X2083Y793D02*
X2090Y793D01*
X0Y792D02*
X7Y792D01*
X2083Y792D02*
X2090Y792D01*
X0Y791D02*
X7Y791D01*
X2083Y791D02*
X2090Y791D01*
X0Y790D02*
X7Y790D01*
X2083Y790D02*
X2090Y790D01*
X0Y789D02*
X7Y789D01*
X2083Y789D02*
X2090Y789D01*
X0Y788D02*
X7Y788D01*
X2083Y788D02*
X2090Y788D01*
X0Y787D02*
X7Y787D01*
X2083Y787D02*
X2090Y787D01*
X0Y786D02*
X7Y786D01*
X2083Y786D02*
X2090Y786D01*
X0Y785D02*
X7Y785D01*
X2083Y785D02*
X2090Y785D01*
X0Y784D02*
X7Y784D01*
X2083Y784D02*
X2090Y784D01*
X0Y783D02*
X7Y783D01*
X2083Y783D02*
X2090Y783D01*
X0Y782D02*
X7Y782D01*
X2083Y782D02*
X2090Y782D01*
X0Y781D02*
X7Y781D01*
X2083Y781D02*
X2090Y781D01*
X0Y780D02*
X7Y780D01*
X2083Y780D02*
X2090Y780D01*
X0Y779D02*
X7Y779D01*
X2083Y779D02*
X2090Y779D01*
X0Y778D02*
X7Y778D01*
X2083Y778D02*
X2090Y778D01*
X0Y777D02*
X7Y777D01*
X2083Y777D02*
X2090Y777D01*
X0Y776D02*
X7Y776D01*
X2083Y776D02*
X2090Y776D01*
X0Y775D02*
X7Y775D01*
X2083Y775D02*
X2090Y775D01*
X0Y774D02*
X7Y774D01*
X2083Y774D02*
X2090Y774D01*
X0Y773D02*
X7Y773D01*
X2083Y773D02*
X2090Y773D01*
X0Y772D02*
X7Y772D01*
X2083Y772D02*
X2090Y772D01*
X0Y771D02*
X7Y771D01*
X2083Y771D02*
X2090Y771D01*
X0Y770D02*
X7Y770D01*
X2083Y770D02*
X2090Y770D01*
X0Y769D02*
X7Y769D01*
X2083Y769D02*
X2090Y769D01*
X0Y768D02*
X7Y768D01*
X2083Y768D02*
X2090Y768D01*
X0Y767D02*
X7Y767D01*
X2083Y767D02*
X2090Y767D01*
X0Y766D02*
X7Y766D01*
X2083Y766D02*
X2090Y766D01*
X0Y765D02*
X7Y765D01*
X2083Y765D02*
X2090Y765D01*
X0Y764D02*
X7Y764D01*
X2083Y764D02*
X2090Y764D01*
X0Y763D02*
X7Y763D01*
X2083Y763D02*
X2090Y763D01*
X0Y762D02*
X7Y762D01*
X2083Y762D02*
X2090Y762D01*
X0Y761D02*
X7Y761D01*
X2083Y761D02*
X2090Y761D01*
X0Y760D02*
X7Y760D01*
X2083Y760D02*
X2090Y760D01*
X0Y759D02*
X7Y759D01*
X2083Y759D02*
X2090Y759D01*
X0Y758D02*
X7Y758D01*
X2083Y758D02*
X2090Y758D01*
X0Y757D02*
X7Y757D01*
X2083Y757D02*
X2090Y757D01*
X0Y756D02*
X7Y756D01*
X2083Y756D02*
X2090Y756D01*
X0Y755D02*
X7Y755D01*
X2083Y755D02*
X2090Y755D01*
X0Y754D02*
X7Y754D01*
X2083Y754D02*
X2090Y754D01*
X0Y753D02*
X7Y753D01*
X2083Y753D02*
X2090Y753D01*
X0Y752D02*
X7Y752D01*
X2083Y752D02*
X2090Y752D01*
X0Y751D02*
X7Y751D01*
X2083Y751D02*
X2090Y751D01*
X0Y750D02*
X7Y750D01*
X2083Y750D02*
X2090Y750D01*
X0Y749D02*
X7Y749D01*
X2083Y749D02*
X2090Y749D01*
X0Y748D02*
X7Y748D01*
X2083Y748D02*
X2090Y748D01*
X0Y747D02*
X7Y747D01*
X2083Y747D02*
X2090Y747D01*
X0Y746D02*
X7Y746D01*
X2083Y746D02*
X2090Y746D01*
X0Y745D02*
X7Y745D01*
X2083Y745D02*
X2090Y745D01*
X0Y744D02*
X7Y744D01*
X2083Y744D02*
X2090Y744D01*
X0Y743D02*
X7Y743D01*
X2083Y743D02*
X2090Y743D01*
X0Y742D02*
X7Y742D01*
X2083Y742D02*
X2090Y742D01*
X0Y741D02*
X7Y741D01*
X2083Y741D02*
X2090Y741D01*
X0Y740D02*
X7Y740D01*
X2083Y740D02*
X2090Y740D01*
X0Y739D02*
X7Y739D01*
X2083Y739D02*
X2090Y739D01*
X0Y738D02*
X7Y738D01*
X2083Y738D02*
X2090Y738D01*
X0Y737D02*
X7Y737D01*
X2083Y737D02*
X2090Y737D01*
X0Y736D02*
X7Y736D01*
X2083Y736D02*
X2090Y736D01*
X0Y735D02*
X7Y735D01*
X2083Y735D02*
X2090Y735D01*
X0Y734D02*
X7Y734D01*
X2083Y734D02*
X2090Y734D01*
X0Y733D02*
X7Y733D01*
X2083Y733D02*
X2090Y733D01*
X0Y732D02*
X7Y732D01*
X2083Y732D02*
X2090Y732D01*
X0Y731D02*
X7Y731D01*
X2083Y731D02*
X2090Y731D01*
X0Y730D02*
X7Y730D01*
X2083Y730D02*
X2090Y730D01*
X0Y729D02*
X7Y729D01*
X2083Y729D02*
X2090Y729D01*
X0Y728D02*
X7Y728D01*
X2083Y728D02*
X2090Y728D01*
X0Y727D02*
X7Y727D01*
X2083Y727D02*
X2090Y727D01*
X0Y726D02*
X7Y726D01*
X2083Y726D02*
X2090Y726D01*
X0Y725D02*
X7Y725D01*
X2083Y725D02*
X2090Y725D01*
X0Y724D02*
X7Y724D01*
X2083Y724D02*
X2090Y724D01*
X0Y723D02*
X7Y723D01*
X2083Y723D02*
X2090Y723D01*
X0Y722D02*
X7Y722D01*
X2083Y722D02*
X2090Y722D01*
X0Y721D02*
X7Y721D01*
X2083Y721D02*
X2090Y721D01*
X0Y720D02*
X7Y720D01*
X2083Y720D02*
X2090Y720D01*
X0Y719D02*
X7Y719D01*
X2083Y719D02*
X2090Y719D01*
X0Y718D02*
X7Y718D01*
X2083Y718D02*
X2090Y718D01*
X0Y717D02*
X7Y717D01*
X2083Y717D02*
X2090Y717D01*
X0Y716D02*
X7Y716D01*
X2083Y716D02*
X2090Y716D01*
X0Y715D02*
X7Y715D01*
X2083Y715D02*
X2090Y715D01*
X0Y714D02*
X7Y714D01*
X2083Y714D02*
X2090Y714D01*
X0Y713D02*
X7Y713D01*
X2083Y713D02*
X2090Y713D01*
X0Y712D02*
X7Y712D01*
X2083Y712D02*
X2090Y712D01*
X0Y711D02*
X7Y711D01*
X2083Y711D02*
X2090Y711D01*
X0Y710D02*
X7Y710D01*
X2083Y710D02*
X2090Y710D01*
X0Y709D02*
X7Y709D01*
X2083Y709D02*
X2090Y709D01*
X0Y708D02*
X7Y708D01*
X2083Y708D02*
X2090Y708D01*
X0Y707D02*
X7Y707D01*
X2083Y707D02*
X2090Y707D01*
X0Y706D02*
X7Y706D01*
X2083Y706D02*
X2090Y706D01*
X0Y705D02*
X7Y705D01*
X2083Y705D02*
X2090Y705D01*
X0Y704D02*
X7Y704D01*
X2083Y704D02*
X2090Y704D01*
X0Y703D02*
X7Y703D01*
X2083Y703D02*
X2090Y703D01*
X0Y702D02*
X7Y702D01*
X2083Y702D02*
X2090Y702D01*
X0Y701D02*
X7Y701D01*
X2083Y701D02*
X2090Y701D01*
X0Y700D02*
X7Y700D01*
X2083Y700D02*
X2090Y700D01*
X0Y699D02*
X7Y699D01*
X2083Y699D02*
X2090Y699D01*
X0Y698D02*
X7Y698D01*
X2083Y698D02*
X2090Y698D01*
X0Y697D02*
X7Y697D01*
X2083Y697D02*
X2090Y697D01*
X0Y696D02*
X7Y696D01*
X2083Y696D02*
X2090Y696D01*
X0Y695D02*
X7Y695D01*
X2083Y695D02*
X2090Y695D01*
X0Y694D02*
X7Y694D01*
X2083Y694D02*
X2090Y694D01*
X0Y693D02*
X7Y693D01*
X2083Y693D02*
X2090Y693D01*
X0Y692D02*
X7Y692D01*
X2083Y692D02*
X2090Y692D01*
X0Y691D02*
X7Y691D01*
X2083Y691D02*
X2090Y691D01*
X0Y690D02*
X7Y690D01*
X2083Y690D02*
X2090Y690D01*
X0Y689D02*
X7Y689D01*
X2083Y689D02*
X2090Y689D01*
X0Y688D02*
X7Y688D01*
X2083Y688D02*
X2090Y688D01*
X0Y687D02*
X7Y687D01*
X2083Y687D02*
X2090Y687D01*
X0Y686D02*
X7Y686D01*
X2083Y686D02*
X2090Y686D01*
X0Y685D02*
X7Y685D01*
X2083Y685D02*
X2090Y685D01*
X0Y684D02*
X7Y684D01*
X2083Y684D02*
X2090Y684D01*
X0Y683D02*
X7Y683D01*
X2083Y683D02*
X2090Y683D01*
X0Y682D02*
X7Y682D01*
X2083Y682D02*
X2090Y682D01*
X0Y681D02*
X7Y681D01*
X2083Y681D02*
X2090Y681D01*
X0Y680D02*
X7Y680D01*
X2083Y680D02*
X2090Y680D01*
X0Y679D02*
X7Y679D01*
X2083Y679D02*
X2090Y679D01*
X0Y678D02*
X7Y678D01*
X2083Y678D02*
X2090Y678D01*
X0Y677D02*
X7Y677D01*
X2083Y677D02*
X2090Y677D01*
X0Y676D02*
X7Y676D01*
X2083Y676D02*
X2090Y676D01*
X0Y675D02*
X7Y675D01*
X2083Y675D02*
X2090Y675D01*
X0Y674D02*
X7Y674D01*
X2083Y674D02*
X2090Y674D01*
X0Y673D02*
X7Y673D01*
X2083Y673D02*
X2090Y673D01*
X0Y672D02*
X7Y672D01*
X2083Y672D02*
X2090Y672D01*
X0Y671D02*
X7Y671D01*
X2083Y671D02*
X2090Y671D01*
X0Y670D02*
X7Y670D01*
X2083Y670D02*
X2090Y670D01*
X0Y669D02*
X7Y669D01*
X2083Y669D02*
X2090Y669D01*
X0Y668D02*
X7Y668D01*
X2083Y668D02*
X2090Y668D01*
X0Y667D02*
X7Y667D01*
X2083Y667D02*
X2090Y667D01*
X0Y666D02*
X7Y666D01*
X2083Y666D02*
X2090Y666D01*
X0Y665D02*
X7Y665D01*
X2083Y665D02*
X2090Y665D01*
X0Y664D02*
X7Y664D01*
X2083Y664D02*
X2090Y664D01*
X0Y663D02*
X7Y663D01*
X2083Y663D02*
X2090Y663D01*
X0Y662D02*
X7Y662D01*
X2083Y662D02*
X2090Y662D01*
X0Y661D02*
X7Y661D01*
X2083Y661D02*
X2090Y661D01*
X0Y660D02*
X7Y660D01*
X2083Y660D02*
X2090Y660D01*
X0Y659D02*
X7Y659D01*
X2083Y659D02*
X2090Y659D01*
X0Y658D02*
X7Y658D01*
X2083Y658D02*
X2090Y658D01*
X0Y657D02*
X7Y657D01*
X2083Y657D02*
X2090Y657D01*
X0Y656D02*
X7Y656D01*
X2083Y656D02*
X2090Y656D01*
X0Y655D02*
X7Y655D01*
X2083Y655D02*
X2090Y655D01*
X0Y654D02*
X7Y654D01*
X2083Y654D02*
X2090Y654D01*
X0Y653D02*
X7Y653D01*
X2083Y653D02*
X2090Y653D01*
X0Y652D02*
X7Y652D01*
X2083Y652D02*
X2090Y652D01*
X0Y651D02*
X7Y651D01*
X2083Y651D02*
X2090Y651D01*
X0Y650D02*
X7Y650D01*
X2083Y650D02*
X2090Y650D01*
X0Y649D02*
X7Y649D01*
X2083Y649D02*
X2090Y649D01*
X0Y648D02*
X7Y648D01*
X2083Y648D02*
X2090Y648D01*
X0Y647D02*
X7Y647D01*
X2083Y647D02*
X2090Y647D01*
X0Y646D02*
X7Y646D01*
X2083Y646D02*
X2090Y646D01*
X0Y645D02*
X7Y645D01*
X2083Y645D02*
X2090Y645D01*
X0Y644D02*
X7Y644D01*
X2083Y644D02*
X2090Y644D01*
X0Y643D02*
X7Y643D01*
X2083Y643D02*
X2090Y643D01*
X0Y642D02*
X7Y642D01*
X2083Y642D02*
X2090Y642D01*
X0Y641D02*
X7Y641D01*
X2083Y641D02*
X2090Y641D01*
X0Y640D02*
X7Y640D01*
X2083Y640D02*
X2090Y640D01*
X0Y639D02*
X7Y639D01*
X2083Y639D02*
X2090Y639D01*
X0Y638D02*
X7Y638D01*
X2083Y638D02*
X2090Y638D01*
X0Y637D02*
X7Y637D01*
X2083Y637D02*
X2090Y637D01*
X0Y636D02*
X7Y636D01*
X2083Y636D02*
X2090Y636D01*
X0Y635D02*
X7Y635D01*
X2083Y635D02*
X2090Y635D01*
X0Y634D02*
X7Y634D01*
X2083Y634D02*
X2090Y634D01*
X0Y633D02*
X7Y633D01*
X2083Y633D02*
X2090Y633D01*
X0Y632D02*
X7Y632D01*
X2083Y632D02*
X2090Y632D01*
X0Y631D02*
X7Y631D01*
X2083Y631D02*
X2090Y631D01*
X0Y630D02*
X7Y630D01*
X2083Y630D02*
X2090Y630D01*
X0Y629D02*
X7Y629D01*
X2083Y629D02*
X2090Y629D01*
X0Y628D02*
X7Y628D01*
X2083Y628D02*
X2090Y628D01*
X0Y627D02*
X7Y627D01*
X2083Y627D02*
X2090Y627D01*
X0Y626D02*
X7Y626D01*
X2083Y626D02*
X2090Y626D01*
X0Y625D02*
X7Y625D01*
X2083Y625D02*
X2090Y625D01*
X0Y624D02*
X7Y624D01*
X2083Y624D02*
X2090Y624D01*
X0Y623D02*
X7Y623D01*
X2083Y623D02*
X2090Y623D01*
X0Y622D02*
X7Y622D01*
X2083Y622D02*
X2090Y622D01*
X0Y621D02*
X7Y621D01*
X2083Y621D02*
X2090Y621D01*
X0Y620D02*
X7Y620D01*
X2083Y620D02*
X2090Y620D01*
X0Y619D02*
X7Y619D01*
X2083Y619D02*
X2090Y619D01*
X0Y618D02*
X7Y618D01*
X2083Y618D02*
X2090Y618D01*
X0Y617D02*
X7Y617D01*
X2083Y617D02*
X2090Y617D01*
X0Y616D02*
X7Y616D01*
X2083Y616D02*
X2090Y616D01*
X0Y615D02*
X7Y615D01*
X2083Y615D02*
X2090Y615D01*
X0Y614D02*
X7Y614D01*
X2083Y614D02*
X2090Y614D01*
X0Y613D02*
X7Y613D01*
X2083Y613D02*
X2090Y613D01*
X0Y612D02*
X7Y612D01*
X2083Y612D02*
X2090Y612D01*
X0Y611D02*
X7Y611D01*
X2083Y611D02*
X2090Y611D01*
X0Y610D02*
X7Y610D01*
X2083Y610D02*
X2090Y610D01*
X0Y609D02*
X7Y609D01*
X2083Y609D02*
X2090Y609D01*
X0Y608D02*
X7Y608D01*
X2083Y608D02*
X2090Y608D01*
X0Y607D02*
X7Y607D01*
X2083Y607D02*
X2090Y607D01*
X0Y606D02*
X7Y606D01*
X2083Y606D02*
X2090Y606D01*
X0Y605D02*
X7Y605D01*
X2083Y605D02*
X2090Y605D01*
X0Y604D02*
X7Y604D01*
X2083Y604D02*
X2090Y604D01*
X0Y603D02*
X7Y603D01*
X2083Y603D02*
X2090Y603D01*
X0Y602D02*
X7Y602D01*
X2083Y602D02*
X2090Y602D01*
X0Y601D02*
X7Y601D01*
X2083Y601D02*
X2090Y601D01*
X0Y600D02*
X7Y600D01*
X2083Y600D02*
X2090Y600D01*
X0Y599D02*
X7Y599D01*
X2083Y599D02*
X2090Y599D01*
X0Y598D02*
X7Y598D01*
X2083Y598D02*
X2090Y598D01*
X0Y597D02*
X7Y597D01*
X2083Y597D02*
X2090Y597D01*
X0Y596D02*
X7Y596D01*
X2083Y596D02*
X2090Y596D01*
X0Y595D02*
X7Y595D01*
X2083Y595D02*
X2090Y595D01*
X0Y594D02*
X7Y594D01*
X2083Y594D02*
X2090Y594D01*
X0Y593D02*
X7Y593D01*
X2083Y593D02*
X2090Y593D01*
X0Y592D02*
X7Y592D01*
X2083Y592D02*
X2090Y592D01*
X0Y591D02*
X7Y591D01*
X2083Y591D02*
X2090Y591D01*
X0Y590D02*
X7Y590D01*
X2083Y590D02*
X2090Y590D01*
X0Y589D02*
X7Y589D01*
X2083Y589D02*
X2090Y589D01*
X0Y588D02*
X7Y588D01*
X2083Y588D02*
X2090Y588D01*
X0Y587D02*
X7Y587D01*
X2083Y587D02*
X2090Y587D01*
X0Y586D02*
X7Y586D01*
X2083Y586D02*
X2090Y586D01*
X0Y585D02*
X7Y585D01*
X2083Y585D02*
X2090Y585D01*
X0Y584D02*
X7Y584D01*
X2083Y584D02*
X2090Y584D01*
X0Y583D02*
X7Y583D01*
X2083Y583D02*
X2090Y583D01*
X0Y582D02*
X7Y582D01*
X2083Y582D02*
X2090Y582D01*
X0Y581D02*
X7Y581D01*
X2083Y581D02*
X2090Y581D01*
X0Y580D02*
X7Y580D01*
X2083Y580D02*
X2090Y580D01*
X0Y579D02*
X7Y579D01*
X2083Y579D02*
X2090Y579D01*
X0Y578D02*
X7Y578D01*
X2083Y578D02*
X2090Y578D01*
X0Y577D02*
X7Y577D01*
X2083Y577D02*
X2090Y577D01*
X0Y576D02*
X7Y576D01*
X2083Y576D02*
X2090Y576D01*
X0Y575D02*
X7Y575D01*
X2083Y575D02*
X2090Y575D01*
X0Y574D02*
X7Y574D01*
X2083Y574D02*
X2090Y574D01*
X0Y573D02*
X7Y573D01*
X2083Y573D02*
X2090Y573D01*
X0Y572D02*
X7Y572D01*
X2083Y572D02*
X2090Y572D01*
X0Y571D02*
X7Y571D01*
X2083Y571D02*
X2090Y571D01*
X0Y570D02*
X7Y570D01*
X2083Y570D02*
X2090Y570D01*
X0Y569D02*
X7Y569D01*
X2083Y569D02*
X2090Y569D01*
X0Y568D02*
X7Y568D01*
X2083Y568D02*
X2090Y568D01*
X0Y567D02*
X7Y567D01*
X2083Y567D02*
X2090Y567D01*
X0Y566D02*
X7Y566D01*
X2083Y566D02*
X2090Y566D01*
X0Y565D02*
X7Y565D01*
X2083Y565D02*
X2090Y565D01*
X0Y564D02*
X7Y564D01*
X2083Y564D02*
X2090Y564D01*
X0Y563D02*
X7Y563D01*
X2083Y563D02*
X2090Y563D01*
X0Y562D02*
X7Y562D01*
X2083Y562D02*
X2090Y562D01*
X0Y561D02*
X7Y561D01*
X2083Y561D02*
X2090Y561D01*
X0Y560D02*
X7Y560D01*
X2083Y560D02*
X2090Y560D01*
X0Y559D02*
X7Y559D01*
X2083Y559D02*
X2090Y559D01*
X0Y558D02*
X7Y558D01*
X2083Y558D02*
X2090Y558D01*
X0Y557D02*
X7Y557D01*
X2083Y557D02*
X2090Y557D01*
X0Y556D02*
X7Y556D01*
X2083Y556D02*
X2090Y556D01*
X0Y555D02*
X7Y555D01*
X2083Y555D02*
X2090Y555D01*
X0Y554D02*
X7Y554D01*
X2083Y554D02*
X2090Y554D01*
X0Y553D02*
X7Y553D01*
X2083Y553D02*
X2090Y553D01*
X0Y552D02*
X7Y552D01*
X2083Y552D02*
X2090Y552D01*
X0Y551D02*
X7Y551D01*
X2083Y551D02*
X2090Y551D01*
X0Y550D02*
X7Y550D01*
X2083Y550D02*
X2090Y550D01*
X0Y549D02*
X7Y549D01*
X2083Y549D02*
X2090Y549D01*
X0Y548D02*
X7Y548D01*
X2083Y548D02*
X2090Y548D01*
X0Y547D02*
X7Y547D01*
X2083Y547D02*
X2090Y547D01*
X0Y546D02*
X7Y546D01*
X2083Y546D02*
X2090Y546D01*
X0Y545D02*
X7Y545D01*
X2083Y545D02*
X2090Y545D01*
X0Y544D02*
X7Y544D01*
X2083Y544D02*
X2090Y544D01*
X0Y543D02*
X7Y543D01*
X2083Y543D02*
X2090Y543D01*
X0Y542D02*
X7Y542D01*
X2083Y542D02*
X2090Y542D01*
X0Y541D02*
X7Y541D01*
X2083Y541D02*
X2090Y541D01*
X0Y540D02*
X7Y540D01*
X2083Y540D02*
X2090Y540D01*
X0Y539D02*
X7Y539D01*
X2083Y539D02*
X2090Y539D01*
X0Y538D02*
X7Y538D01*
X2083Y538D02*
X2090Y538D01*
X0Y537D02*
X7Y537D01*
X2083Y537D02*
X2090Y537D01*
X0Y536D02*
X7Y536D01*
X2083Y536D02*
X2090Y536D01*
X0Y535D02*
X7Y535D01*
X2083Y535D02*
X2090Y535D01*
X0Y534D02*
X7Y534D01*
X2083Y534D02*
X2090Y534D01*
X0Y533D02*
X7Y533D01*
X2083Y533D02*
X2090Y533D01*
X0Y532D02*
X7Y532D01*
X2083Y532D02*
X2090Y532D01*
X0Y531D02*
X7Y531D01*
X2083Y531D02*
X2090Y531D01*
X0Y530D02*
X7Y530D01*
X2083Y530D02*
X2090Y530D01*
X0Y529D02*
X7Y529D01*
X2083Y529D02*
X2090Y529D01*
X0Y528D02*
X7Y528D01*
X2083Y528D02*
X2090Y528D01*
X0Y527D02*
X7Y527D01*
X2083Y527D02*
X2090Y527D01*
X0Y526D02*
X7Y526D01*
X2083Y526D02*
X2090Y526D01*
X0Y525D02*
X7Y525D01*
X2083Y525D02*
X2090Y525D01*
X0Y524D02*
X7Y524D01*
X2083Y524D02*
X2090Y524D01*
X0Y523D02*
X7Y523D01*
X2083Y523D02*
X2090Y523D01*
X0Y522D02*
X7Y522D01*
X2083Y522D02*
X2090Y522D01*
X0Y521D02*
X7Y521D01*
X2083Y521D02*
X2090Y521D01*
X0Y520D02*
X7Y520D01*
X2083Y520D02*
X2090Y520D01*
X0Y519D02*
X7Y519D01*
X2083Y519D02*
X2090Y519D01*
X0Y518D02*
X7Y518D01*
X2083Y518D02*
X2090Y518D01*
X0Y517D02*
X7Y517D01*
X2083Y517D02*
X2090Y517D01*
X0Y516D02*
X7Y516D01*
X2083Y516D02*
X2090Y516D01*
X0Y515D02*
X7Y515D01*
X2083Y515D02*
X2090Y515D01*
X0Y514D02*
X7Y514D01*
X2083Y514D02*
X2090Y514D01*
X0Y513D02*
X7Y513D01*
X2083Y513D02*
X2090Y513D01*
X0Y512D02*
X7Y512D01*
X2083Y512D02*
X2090Y512D01*
X0Y511D02*
X7Y511D01*
X2083Y511D02*
X2090Y511D01*
X0Y510D02*
X7Y510D01*
X2083Y510D02*
X2090Y510D01*
X0Y509D02*
X7Y509D01*
X1421Y509D02*
X1447Y509D01*
X1465Y509D02*
X1468Y509D01*
X1489Y509D02*
X1497Y509D01*
X1521Y509D02*
X1547Y509D01*
X2083Y509D02*
X2090Y509D01*
X0Y508D02*
X7Y508D01*
X1418Y508D02*
X1447Y508D01*
X1464Y508D02*
X1469Y508D01*
X1488Y508D02*
X1497Y508D01*
X1519Y508D02*
X1547Y508D01*
X2083Y508D02*
X2090Y508D01*
X0Y507D02*
X7Y507D01*
X1417Y507D02*
X1447Y507D01*
X1464Y507D02*
X1469Y507D01*
X1488Y507D02*
X1497Y507D01*
X1517Y507D02*
X1547Y507D01*
X2083Y507D02*
X2090Y507D01*
X0Y506D02*
X7Y506D01*
X1416Y506D02*
X1447Y506D01*
X1464Y506D02*
X1469Y506D01*
X1487Y506D02*
X1497Y506D01*
X1516Y506D02*
X1547Y506D01*
X2083Y506D02*
X2090Y506D01*
X0Y505D02*
X7Y505D01*
X1415Y505D02*
X1447Y505D01*
X1463Y505D02*
X1470Y505D01*
X1487Y505D02*
X1497Y505D01*
X1516Y505D02*
X1547Y505D01*
X2083Y505D02*
X2090Y505D01*
X0Y504D02*
X7Y504D01*
X1415Y504D02*
X1447Y504D01*
X1463Y504D02*
X1470Y504D01*
X1486Y504D02*
X1497Y504D01*
X1515Y504D02*
X1547Y504D01*
X2083Y504D02*
X2090Y504D01*
X0Y503D02*
X7Y503D01*
X1414Y503D02*
X1447Y503D01*
X1463Y503D02*
X1470Y503D01*
X1486Y503D02*
X1497Y503D01*
X1514Y503D02*
X1547Y503D01*
X2083Y503D02*
X2090Y503D01*
X0Y502D02*
X7Y502D01*
X1414Y502D02*
X1421Y502D01*
X1441Y502D02*
X1447Y502D01*
X1463Y502D02*
X1470Y502D01*
X1486Y502D02*
X1497Y502D01*
X1514Y502D02*
X1521Y502D01*
X1541Y502D02*
X1547Y502D01*
X2083Y502D02*
X2090Y502D01*
X0Y501D02*
X7Y501D01*
X1413Y501D02*
X1420Y501D01*
X1441Y501D02*
X1447Y501D01*
X1463Y501D02*
X1470Y501D01*
X1485Y501D02*
X1497Y501D01*
X1514Y501D02*
X1520Y501D01*
X1541Y501D02*
X1547Y501D01*
X2083Y501D02*
X2090Y501D01*
X0Y500D02*
X7Y500D01*
X1413Y500D02*
X1420Y500D01*
X1441Y500D02*
X1447Y500D01*
X1463Y500D02*
X1470Y500D01*
X1485Y500D02*
X1497Y500D01*
X1514Y500D02*
X1520Y500D01*
X1541Y500D02*
X1547Y500D01*
X2083Y500D02*
X2090Y500D01*
X0Y499D02*
X7Y499D01*
X1413Y499D02*
X1419Y499D01*
X1441Y499D02*
X1447Y499D01*
X1463Y499D02*
X1470Y499D01*
X1484Y499D02*
X1497Y499D01*
X1514Y499D02*
X1520Y499D01*
X1541Y499D02*
X1547Y499D01*
X2083Y499D02*
X2090Y499D01*
X0Y498D02*
X7Y498D01*
X1413Y498D02*
X1419Y498D01*
X1441Y498D02*
X1447Y498D01*
X1463Y498D02*
X1470Y498D01*
X1484Y498D02*
X1497Y498D01*
X1514Y498D02*
X1520Y498D01*
X1541Y498D02*
X1547Y498D01*
X2083Y498D02*
X2090Y498D01*
X0Y497D02*
X7Y497D01*
X1413Y497D02*
X1419Y497D01*
X1441Y497D02*
X1447Y497D01*
X1463Y497D02*
X1470Y497D01*
X1483Y497D02*
X1497Y497D01*
X1514Y497D02*
X1520Y497D01*
X1541Y497D02*
X1547Y497D01*
X2083Y497D02*
X2090Y497D01*
X0Y496D02*
X7Y496D01*
X1413Y496D02*
X1419Y496D01*
X1441Y496D02*
X1447Y496D01*
X1463Y496D02*
X1470Y496D01*
X1483Y496D02*
X1497Y496D01*
X1514Y496D02*
X1520Y496D01*
X1541Y496D02*
X1547Y496D01*
X2083Y496D02*
X2090Y496D01*
X0Y495D02*
X7Y495D01*
X1413Y495D02*
X1419Y495D01*
X1441Y495D02*
X1447Y495D01*
X1463Y495D02*
X1470Y495D01*
X1482Y495D02*
X1489Y495D01*
X1491Y495D02*
X1497Y495D01*
X1514Y495D02*
X1520Y495D01*
X1541Y495D02*
X1547Y495D01*
X2083Y495D02*
X2090Y495D01*
X0Y494D02*
X7Y494D01*
X1413Y494D02*
X1419Y494D01*
X1441Y494D02*
X1447Y494D01*
X1463Y494D02*
X1470Y494D01*
X1482Y494D02*
X1489Y494D01*
X1491Y494D02*
X1497Y494D01*
X1514Y494D02*
X1520Y494D01*
X1541Y494D02*
X1547Y494D01*
X2083Y494D02*
X2090Y494D01*
X0Y493D02*
X7Y493D01*
X1413Y493D02*
X1419Y493D01*
X1441Y493D02*
X1447Y493D01*
X1463Y493D02*
X1470Y493D01*
X1482Y493D02*
X1488Y493D01*
X1491Y493D02*
X1497Y493D01*
X1514Y493D02*
X1520Y493D01*
X1541Y493D02*
X1547Y493D01*
X2083Y493D02*
X2090Y493D01*
X0Y492D02*
X7Y492D01*
X1413Y492D02*
X1419Y492D01*
X1441Y492D02*
X1447Y492D01*
X1463Y492D02*
X1470Y492D01*
X1481Y492D02*
X1488Y492D01*
X1491Y492D02*
X1497Y492D01*
X1514Y492D02*
X1520Y492D01*
X1541Y492D02*
X1547Y492D01*
X2083Y492D02*
X2090Y492D01*
X0Y491D02*
X7Y491D01*
X1413Y491D02*
X1419Y491D01*
X1441Y491D02*
X1447Y491D01*
X1463Y491D02*
X1470Y491D01*
X1481Y491D02*
X1487Y491D01*
X1491Y491D02*
X1497Y491D01*
X1514Y491D02*
X1520Y491D01*
X1541Y491D02*
X1547Y491D01*
X2083Y491D02*
X2090Y491D01*
X0Y490D02*
X7Y490D01*
X1413Y490D02*
X1419Y490D01*
X1441Y490D02*
X1447Y490D01*
X1463Y490D02*
X1470Y490D01*
X1480Y490D02*
X1487Y490D01*
X1491Y490D02*
X1497Y490D01*
X1514Y490D02*
X1520Y490D01*
X1541Y490D02*
X1547Y490D01*
X2083Y490D02*
X2090Y490D01*
X0Y489D02*
X7Y489D01*
X1413Y489D02*
X1419Y489D01*
X1441Y489D02*
X1447Y489D01*
X1463Y489D02*
X1470Y489D01*
X1480Y489D02*
X1487Y489D01*
X1491Y489D02*
X1497Y489D01*
X1514Y489D02*
X1520Y489D01*
X1541Y489D02*
X1547Y489D01*
X2083Y489D02*
X2090Y489D01*
X0Y488D02*
X7Y488D01*
X1413Y488D02*
X1419Y488D01*
X1441Y488D02*
X1447Y488D01*
X1463Y488D02*
X1470Y488D01*
X1479Y488D02*
X1486Y488D01*
X1491Y488D02*
X1497Y488D01*
X1514Y488D02*
X1520Y488D01*
X1541Y488D02*
X1547Y488D01*
X2083Y488D02*
X2090Y488D01*
X0Y487D02*
X7Y487D01*
X1413Y487D02*
X1419Y487D01*
X1441Y487D02*
X1447Y487D01*
X1463Y487D02*
X1470Y487D01*
X1479Y487D02*
X1486Y487D01*
X1491Y487D02*
X1497Y487D01*
X1514Y487D02*
X1520Y487D01*
X1541Y487D02*
X1547Y487D01*
X2083Y487D02*
X2090Y487D01*
X0Y486D02*
X7Y486D01*
X1413Y486D02*
X1419Y486D01*
X1441Y486D02*
X1447Y486D01*
X1463Y486D02*
X1470Y486D01*
X1479Y486D02*
X1485Y486D01*
X1491Y486D02*
X1497Y486D01*
X1514Y486D02*
X1520Y486D01*
X1541Y486D02*
X1547Y486D01*
X2083Y486D02*
X2090Y486D01*
X0Y485D02*
X7Y485D01*
X1413Y485D02*
X1420Y485D01*
X1441Y485D02*
X1447Y485D01*
X1463Y485D02*
X1470Y485D01*
X1478Y485D02*
X1485Y485D01*
X1491Y485D02*
X1497Y485D01*
X1514Y485D02*
X1520Y485D01*
X1541Y485D02*
X1547Y485D01*
X2083Y485D02*
X2090Y485D01*
X0Y484D02*
X7Y484D01*
X1414Y484D02*
X1421Y484D01*
X1441Y484D02*
X1447Y484D01*
X1463Y484D02*
X1470Y484D01*
X1478Y484D02*
X1484Y484D01*
X1491Y484D02*
X1497Y484D01*
X1514Y484D02*
X1521Y484D01*
X1541Y484D02*
X1547Y484D01*
X2083Y484D02*
X2090Y484D01*
X0Y483D02*
X7Y483D01*
X1414Y483D02*
X1447Y483D01*
X1463Y483D02*
X1470Y483D01*
X1477Y483D02*
X1484Y483D01*
X1491Y483D02*
X1497Y483D01*
X1514Y483D02*
X1547Y483D01*
X2083Y483D02*
X2090Y483D01*
X0Y482D02*
X7Y482D01*
X1414Y482D02*
X1447Y482D01*
X1463Y482D02*
X1470Y482D01*
X1477Y482D02*
X1483Y482D01*
X1491Y482D02*
X1497Y482D01*
X1515Y482D02*
X1547Y482D01*
X2083Y482D02*
X2090Y482D01*
X0Y481D02*
X7Y481D01*
X1415Y481D02*
X1447Y481D01*
X1463Y481D02*
X1470Y481D01*
X1476Y481D02*
X1483Y481D01*
X1491Y481D02*
X1497Y481D01*
X1515Y481D02*
X1547Y481D01*
X2083Y481D02*
X2090Y481D01*
X0Y480D02*
X7Y480D01*
X1416Y480D02*
X1447Y480D01*
X1463Y480D02*
X1470Y480D01*
X1476Y480D02*
X1483Y480D01*
X1491Y480D02*
X1497Y480D01*
X1516Y480D02*
X1547Y480D01*
X2083Y480D02*
X2090Y480D01*
X0Y479D02*
X7Y479D01*
X1417Y479D02*
X1447Y479D01*
X1463Y479D02*
X1470Y479D01*
X1475Y479D02*
X1482Y479D01*
X1491Y479D02*
X1497Y479D01*
X1517Y479D02*
X1547Y479D01*
X2083Y479D02*
X2090Y479D01*
X0Y478D02*
X7Y478D01*
X1418Y478D02*
X1447Y478D01*
X1463Y478D02*
X1470Y478D01*
X1475Y478D02*
X1482Y478D01*
X1491Y478D02*
X1497Y478D01*
X1518Y478D02*
X1547Y478D01*
X2083Y478D02*
X2090Y478D01*
X0Y477D02*
X7Y477D01*
X1420Y477D02*
X1447Y477D01*
X1463Y477D02*
X1470Y477D01*
X1475Y477D02*
X1481Y477D01*
X1491Y477D02*
X1497Y477D01*
X1520Y477D02*
X1547Y477D01*
X2083Y477D02*
X2090Y477D01*
X0Y476D02*
X7Y476D01*
X1440Y476D02*
X1447Y476D01*
X1463Y476D02*
X1470Y476D01*
X1474Y476D02*
X1481Y476D01*
X1491Y476D02*
X1497Y476D01*
X1541Y476D02*
X1547Y476D01*
X2083Y476D02*
X2090Y476D01*
X0Y475D02*
X7Y475D01*
X1441Y475D02*
X1447Y475D01*
X1463Y475D02*
X1470Y475D01*
X1474Y475D02*
X1480Y475D01*
X1491Y475D02*
X1497Y475D01*
X1541Y475D02*
X1547Y475D01*
X2083Y475D02*
X2090Y475D01*
X0Y474D02*
X7Y474D01*
X1441Y474D02*
X1447Y474D01*
X1463Y474D02*
X1470Y474D01*
X1473Y474D02*
X1480Y474D01*
X1491Y474D02*
X1497Y474D01*
X1541Y474D02*
X1547Y474D01*
X2083Y474D02*
X2090Y474D01*
X0Y473D02*
X7Y473D01*
X1441Y473D02*
X1447Y473D01*
X1463Y473D02*
X1470Y473D01*
X1473Y473D02*
X1480Y473D01*
X1491Y473D02*
X1497Y473D01*
X1541Y473D02*
X1547Y473D01*
X2083Y473D02*
X2090Y473D01*
X0Y472D02*
X7Y472D01*
X1441Y472D02*
X1447Y472D01*
X1463Y472D02*
X1470Y472D01*
X1472Y472D02*
X1479Y472D01*
X1491Y472D02*
X1497Y472D01*
X1541Y472D02*
X1547Y472D01*
X2083Y472D02*
X2090Y472D01*
X0Y471D02*
X7Y471D01*
X1441Y471D02*
X1447Y471D01*
X1463Y471D02*
X1470Y471D01*
X1472Y471D02*
X1479Y471D01*
X1491Y471D02*
X1497Y471D01*
X1541Y471D02*
X1547Y471D01*
X2083Y471D02*
X2090Y471D01*
X0Y470D02*
X7Y470D01*
X1441Y470D02*
X1447Y470D01*
X1463Y470D02*
X1478Y470D01*
X1491Y470D02*
X1497Y470D01*
X1541Y470D02*
X1547Y470D01*
X2083Y470D02*
X2090Y470D01*
X0Y469D02*
X7Y469D01*
X1441Y469D02*
X1447Y469D01*
X1463Y469D02*
X1478Y469D01*
X1491Y469D02*
X1497Y469D01*
X1541Y469D02*
X1547Y469D01*
X2083Y469D02*
X2090Y469D01*
X0Y468D02*
X7Y468D01*
X1441Y468D02*
X1447Y468D01*
X1463Y468D02*
X1477Y468D01*
X1491Y468D02*
X1497Y468D01*
X1541Y468D02*
X1547Y468D01*
X2083Y468D02*
X2090Y468D01*
X0Y467D02*
X7Y467D01*
X1441Y467D02*
X1447Y467D01*
X1463Y467D02*
X1477Y467D01*
X1491Y467D02*
X1497Y467D01*
X1541Y467D02*
X1547Y467D01*
X2083Y467D02*
X2090Y467D01*
X0Y466D02*
X7Y466D01*
X1441Y466D02*
X1447Y466D01*
X1463Y466D02*
X1476Y466D01*
X1491Y466D02*
X1497Y466D01*
X1541Y466D02*
X1547Y466D01*
X2083Y466D02*
X2090Y466D01*
X0Y465D02*
X7Y465D01*
X1441Y465D02*
X1447Y465D01*
X1463Y465D02*
X1476Y465D01*
X1491Y465D02*
X1497Y465D01*
X1541Y465D02*
X1547Y465D01*
X2083Y465D02*
X2090Y465D01*
X0Y464D02*
X7Y464D01*
X1441Y464D02*
X1447Y464D01*
X1463Y464D02*
X1476Y464D01*
X1491Y464D02*
X1497Y464D01*
X1541Y464D02*
X1547Y464D01*
X2083Y464D02*
X2090Y464D01*
X0Y463D02*
X7Y463D01*
X1441Y463D02*
X1447Y463D01*
X1463Y463D02*
X1475Y463D01*
X1491Y463D02*
X1497Y463D01*
X1541Y463D02*
X1547Y463D01*
X2083Y463D02*
X2090Y463D01*
X0Y462D02*
X7Y462D01*
X1441Y462D02*
X1447Y462D01*
X1463Y462D02*
X1475Y462D01*
X1491Y462D02*
X1497Y462D01*
X1541Y462D02*
X1547Y462D01*
X2083Y462D02*
X2090Y462D01*
X0Y461D02*
X7Y461D01*
X1441Y461D02*
X1447Y461D01*
X1463Y461D02*
X1474Y461D01*
X1491Y461D02*
X1497Y461D01*
X1541Y461D02*
X1547Y461D01*
X2083Y461D02*
X2090Y461D01*
X0Y460D02*
X7Y460D01*
X1441Y460D02*
X1447Y460D01*
X1463Y460D02*
X1474Y460D01*
X1491Y460D02*
X1497Y460D01*
X1541Y460D02*
X1547Y460D01*
X2083Y460D02*
X2090Y460D01*
X0Y459D02*
X7Y459D01*
X1441Y459D02*
X1447Y459D01*
X1463Y459D02*
X1473Y459D01*
X1491Y459D02*
X1497Y459D01*
X1541Y459D02*
X1547Y459D01*
X2083Y459D02*
X2090Y459D01*
X0Y458D02*
X7Y458D01*
X1441Y458D02*
X1447Y458D01*
X1463Y458D02*
X1473Y458D01*
X1491Y458D02*
X1497Y458D01*
X1541Y458D02*
X1547Y458D01*
X2083Y458D02*
X2090Y458D01*
X0Y457D02*
X7Y457D01*
X1442Y457D02*
X1446Y457D01*
X1463Y457D02*
X1473Y457D01*
X1492Y457D02*
X1496Y457D01*
X1542Y457D02*
X1547Y457D01*
X2083Y457D02*
X2090Y457D01*
X0Y456D02*
X7Y456D01*
X1443Y456D02*
X1445Y456D01*
X1463Y456D02*
X1472Y456D01*
X1493Y456D02*
X1495Y456D01*
X1543Y456D02*
X1546Y456D01*
X2083Y456D02*
X2090Y456D01*
X0Y455D02*
X7Y455D01*
X2083Y455D02*
X2090Y455D01*
X0Y454D02*
X7Y454D01*
X2083Y454D02*
X2090Y454D01*
X0Y453D02*
X7Y453D01*
X2083Y453D02*
X2090Y453D01*
X0Y452D02*
X7Y452D01*
X2083Y452D02*
X2090Y452D01*
X0Y451D02*
X7Y451D01*
X2083Y451D02*
X2090Y451D01*
X0Y450D02*
X7Y450D01*
X1198Y450D02*
X1236Y450D01*
X1460Y450D02*
X1499Y450D01*
X2083Y450D02*
X2090Y450D01*
X0Y449D02*
X7Y449D01*
X1198Y449D02*
X1233Y449D01*
X1460Y449D02*
X1496Y449D01*
X2083Y449D02*
X2090Y449D01*
X0Y448D02*
X7Y448D01*
X1198Y448D02*
X1233Y448D01*
X1460Y448D02*
X1496Y448D01*
X2083Y448D02*
X2090Y448D01*
X0Y447D02*
X7Y447D01*
X1198Y447D02*
X1233Y447D01*
X1460Y447D02*
X1496Y447D01*
X2083Y447D02*
X2090Y447D01*
X0Y446D02*
X7Y446D01*
X1198Y446D02*
X1201Y446D01*
X1233Y446D02*
X1233Y446D01*
X1460Y446D02*
X1463Y446D01*
X1496Y446D02*
X1496Y446D01*
X2083Y446D02*
X2090Y446D01*
X0Y445D02*
X7Y445D01*
X1198Y445D02*
X1201Y445D01*
X1233Y445D02*
X1233Y445D01*
X1460Y445D02*
X1463Y445D01*
X1496Y445D02*
X1496Y445D01*
X2083Y445D02*
X2090Y445D01*
X0Y444D02*
X7Y444D01*
X1198Y444D02*
X1201Y444D01*
X1233Y444D02*
X1233Y444D01*
X1460Y444D02*
X1463Y444D01*
X1496Y444D02*
X1496Y444D01*
X2083Y444D02*
X2090Y444D01*
X0Y443D02*
X7Y443D01*
X1198Y443D02*
X1201Y443D01*
X1233Y443D02*
X1233Y443D01*
X1460Y443D02*
X1463Y443D01*
X1496Y443D02*
X1496Y443D01*
X2083Y443D02*
X2090Y443D01*
X0Y442D02*
X7Y442D01*
X1198Y442D02*
X1201Y442D01*
X1233Y442D02*
X1233Y442D01*
X1460Y442D02*
X1463Y442D01*
X1496Y442D02*
X1496Y442D01*
X2083Y442D02*
X2090Y442D01*
X0Y441D02*
X7Y441D01*
X1198Y441D02*
X1201Y441D01*
X1233Y441D02*
X1233Y441D01*
X1460Y441D02*
X1463Y441D01*
X1496Y441D02*
X1496Y441D01*
X2083Y441D02*
X2090Y441D01*
X0Y440D02*
X7Y440D01*
X1198Y440D02*
X1201Y440D01*
X1233Y440D02*
X1233Y440D01*
X1460Y440D02*
X1463Y440D01*
X1496Y440D02*
X1496Y440D01*
X2083Y440D02*
X2090Y440D01*
X0Y439D02*
X7Y439D01*
X1198Y439D02*
X1201Y439D01*
X1233Y439D02*
X1233Y439D01*
X1460Y439D02*
X1463Y439D01*
X1496Y439D02*
X1496Y439D01*
X2083Y439D02*
X2090Y439D01*
X0Y438D02*
X7Y438D01*
X1198Y438D02*
X1201Y438D01*
X1233Y438D02*
X1233Y438D01*
X1460Y438D02*
X1463Y438D01*
X1496Y438D02*
X1496Y438D01*
X2083Y438D02*
X2090Y438D01*
X0Y437D02*
X7Y437D01*
X1198Y437D02*
X1201Y437D01*
X1233Y437D02*
X1233Y437D01*
X1460Y437D02*
X1463Y437D01*
X1496Y437D02*
X1496Y437D01*
X2083Y437D02*
X2090Y437D01*
X0Y436D02*
X7Y436D01*
X1198Y436D02*
X1201Y436D01*
X1233Y436D02*
X1233Y436D01*
X1460Y436D02*
X1463Y436D01*
X1496Y436D02*
X1496Y436D01*
X2083Y436D02*
X2090Y436D01*
X0Y435D02*
X7Y435D01*
X1198Y435D02*
X1201Y435D01*
X1233Y435D02*
X1233Y435D01*
X1460Y435D02*
X1463Y435D01*
X1496Y435D02*
X1496Y435D01*
X2083Y435D02*
X2090Y435D01*
X0Y434D02*
X7Y434D01*
X1198Y434D02*
X1201Y434D01*
X1233Y434D02*
X1233Y434D01*
X1460Y434D02*
X1463Y434D01*
X1496Y434D02*
X1496Y434D01*
X2083Y434D02*
X2090Y434D01*
X0Y433D02*
X7Y433D01*
X1198Y433D02*
X1201Y433D01*
X1233Y433D02*
X1233Y433D01*
X1460Y433D02*
X1463Y433D01*
X1496Y433D02*
X1496Y433D01*
X2083Y433D02*
X2090Y433D01*
X0Y432D02*
X7Y432D01*
X1198Y432D02*
X1201Y432D01*
X1233Y432D02*
X1233Y432D01*
X1460Y432D02*
X1463Y432D01*
X1496Y432D02*
X1496Y432D01*
X2083Y432D02*
X2090Y432D01*
X0Y431D02*
X7Y431D01*
X1198Y431D02*
X1201Y431D01*
X1233Y431D02*
X1233Y431D01*
X1460Y431D02*
X1463Y431D01*
X1496Y431D02*
X1496Y431D01*
X2083Y431D02*
X2090Y431D01*
X0Y430D02*
X7Y430D01*
X1198Y430D02*
X1201Y430D01*
X1233Y430D02*
X1233Y430D01*
X1460Y430D02*
X1463Y430D01*
X1496Y430D02*
X1496Y430D01*
X2083Y430D02*
X2090Y430D01*
X0Y429D02*
X7Y429D01*
X1198Y429D02*
X1201Y429D01*
X1233Y429D02*
X1233Y429D01*
X1460Y429D02*
X1463Y429D01*
X1496Y429D02*
X1496Y429D01*
X2083Y429D02*
X2090Y429D01*
X0Y428D02*
X7Y428D01*
X1198Y428D02*
X1201Y428D01*
X1233Y428D02*
X1233Y428D01*
X1460Y428D02*
X1463Y428D01*
X1496Y428D02*
X1496Y428D01*
X2083Y428D02*
X2090Y428D01*
X0Y427D02*
X7Y427D01*
X1198Y427D02*
X1201Y427D01*
X1233Y427D02*
X1233Y427D01*
X1460Y427D02*
X1463Y427D01*
X1496Y427D02*
X1496Y427D01*
X2083Y427D02*
X2090Y427D01*
X0Y426D02*
X7Y426D01*
X1198Y426D02*
X1201Y426D01*
X1233Y426D02*
X1233Y426D01*
X1460Y426D02*
X1463Y426D01*
X1496Y426D02*
X1496Y426D01*
X2083Y426D02*
X2090Y426D01*
X0Y425D02*
X7Y425D01*
X1198Y425D02*
X1201Y425D01*
X1233Y425D02*
X1233Y425D01*
X1460Y425D02*
X1463Y425D01*
X1496Y425D02*
X1496Y425D01*
X2083Y425D02*
X2090Y425D01*
X0Y424D02*
X7Y424D01*
X1198Y424D02*
X1201Y424D01*
X1233Y424D02*
X1233Y424D01*
X1460Y424D02*
X1463Y424D01*
X1496Y424D02*
X1496Y424D01*
X2083Y424D02*
X2090Y424D01*
X0Y423D02*
X7Y423D01*
X1198Y423D02*
X1201Y423D01*
X1233Y423D02*
X1233Y423D01*
X1460Y423D02*
X1463Y423D01*
X1496Y423D02*
X1496Y423D01*
X2083Y423D02*
X2090Y423D01*
X0Y422D02*
X7Y422D01*
X1198Y422D02*
X1201Y422D01*
X1233Y422D02*
X1233Y422D01*
X1460Y422D02*
X1463Y422D01*
X1496Y422D02*
X1496Y422D01*
X2083Y422D02*
X2090Y422D01*
X0Y421D02*
X7Y421D01*
X1198Y421D02*
X1201Y421D01*
X1233Y421D02*
X1233Y421D01*
X1460Y421D02*
X1463Y421D01*
X1496Y421D02*
X1496Y421D01*
X2083Y421D02*
X2090Y421D01*
X0Y420D02*
X7Y420D01*
X1198Y420D02*
X1201Y420D01*
X1233Y420D02*
X1233Y420D01*
X1460Y420D02*
X1463Y420D01*
X1496Y420D02*
X1496Y420D01*
X2083Y420D02*
X2090Y420D01*
X0Y419D02*
X7Y419D01*
X1198Y419D02*
X1201Y419D01*
X1233Y419D02*
X1233Y419D01*
X1460Y419D02*
X1463Y419D01*
X1496Y419D02*
X1496Y419D01*
X2083Y419D02*
X2090Y419D01*
X0Y418D02*
X7Y418D01*
X1198Y418D02*
X1201Y418D01*
X1233Y418D02*
X1233Y418D01*
X1460Y418D02*
X1463Y418D01*
X1496Y418D02*
X1496Y418D01*
X2083Y418D02*
X2090Y418D01*
X0Y417D02*
X7Y417D01*
X1198Y417D02*
X1201Y417D01*
X1233Y417D02*
X1233Y417D01*
X1460Y417D02*
X1463Y417D01*
X1496Y417D02*
X1496Y417D01*
X2083Y417D02*
X2090Y417D01*
X0Y416D02*
X7Y416D01*
X1198Y416D02*
X1201Y416D01*
X1233Y416D02*
X1233Y416D01*
X1460Y416D02*
X1463Y416D01*
X1496Y416D02*
X1496Y416D01*
X2083Y416D02*
X2090Y416D01*
X0Y415D02*
X7Y415D01*
X1198Y415D02*
X1201Y415D01*
X1233Y415D02*
X1233Y415D01*
X1460Y415D02*
X1463Y415D01*
X1496Y415D02*
X1496Y415D01*
X2083Y415D02*
X2090Y415D01*
X0Y414D02*
X7Y414D01*
X1198Y414D02*
X1201Y414D01*
X1233Y414D02*
X1233Y414D01*
X1460Y414D02*
X1463Y414D01*
X1496Y414D02*
X1496Y414D01*
X2083Y414D02*
X2090Y414D01*
X0Y413D02*
X7Y413D01*
X1198Y413D02*
X1201Y413D01*
X1233Y413D02*
X1233Y413D01*
X1460Y413D02*
X1463Y413D01*
X1496Y413D02*
X1496Y413D01*
X2083Y413D02*
X2090Y413D01*
X0Y412D02*
X7Y412D01*
X1201Y412D02*
X1201Y412D01*
X1233Y412D02*
X1233Y412D01*
X1463Y412D02*
X1463Y412D01*
X1496Y412D02*
X1496Y412D01*
X2083Y412D02*
X2090Y412D01*
X0Y411D02*
X7Y411D01*
X1201Y411D02*
X1201Y411D01*
X1233Y411D02*
X1233Y411D01*
X1463Y411D02*
X1463Y411D01*
X1496Y411D02*
X1496Y411D01*
X2083Y411D02*
X2090Y411D01*
X0Y410D02*
X7Y410D01*
X1201Y410D02*
X1201Y410D01*
X1233Y410D02*
X1233Y410D01*
X1463Y410D02*
X1463Y410D01*
X1496Y410D02*
X1496Y410D01*
X2083Y410D02*
X2090Y410D01*
X0Y409D02*
X7Y409D01*
X1201Y409D02*
X1201Y409D01*
X1233Y409D02*
X1233Y409D01*
X1463Y409D02*
X1463Y409D01*
X1496Y409D02*
X1496Y409D01*
X2083Y409D02*
X2090Y409D01*
X0Y408D02*
X7Y408D01*
X1201Y408D02*
X1201Y408D01*
X1233Y408D02*
X1236Y408D01*
X1463Y408D02*
X1463Y408D01*
X1496Y408D02*
X1499Y408D01*
X2083Y408D02*
X2090Y408D01*
X0Y407D02*
X7Y407D01*
X1201Y407D02*
X1201Y407D01*
X1233Y407D02*
X1236Y407D01*
X1463Y407D02*
X1463Y407D01*
X1496Y407D02*
X1499Y407D01*
X2083Y407D02*
X2090Y407D01*
X0Y406D02*
X7Y406D01*
X1201Y406D02*
X1201Y406D01*
X1233Y406D02*
X1236Y406D01*
X1463Y406D02*
X1463Y406D01*
X1496Y406D02*
X1499Y406D01*
X2083Y406D02*
X2090Y406D01*
X0Y405D02*
X7Y405D01*
X1201Y405D02*
X1201Y405D01*
X1233Y405D02*
X1236Y405D01*
X1463Y405D02*
X1463Y405D01*
X1496Y405D02*
X1499Y405D01*
X2083Y405D02*
X2090Y405D01*
X0Y404D02*
X7Y404D01*
X1201Y404D02*
X1201Y404D01*
X1233Y404D02*
X1236Y404D01*
X1463Y404D02*
X1463Y404D01*
X1496Y404D02*
X1499Y404D01*
X2083Y404D02*
X2090Y404D01*
X0Y403D02*
X7Y403D01*
X1201Y403D02*
X1201Y403D01*
X1233Y403D02*
X1236Y403D01*
X1463Y403D02*
X1463Y403D01*
X1496Y403D02*
X1499Y403D01*
X2083Y403D02*
X2090Y403D01*
X0Y402D02*
X7Y402D01*
X1201Y402D02*
X1201Y402D01*
X1233Y402D02*
X1236Y402D01*
X1463Y402D02*
X1463Y402D01*
X1496Y402D02*
X1499Y402D01*
X2083Y402D02*
X2090Y402D01*
X0Y401D02*
X7Y401D01*
X1201Y401D02*
X1201Y401D01*
X1233Y401D02*
X1236Y401D01*
X1463Y401D02*
X1463Y401D01*
X1496Y401D02*
X1499Y401D01*
X2083Y401D02*
X2090Y401D01*
X0Y400D02*
X7Y400D01*
X1201Y400D02*
X1201Y400D01*
X1233Y400D02*
X1236Y400D01*
X1463Y400D02*
X1463Y400D01*
X1496Y400D02*
X1499Y400D01*
X2083Y400D02*
X2090Y400D01*
X0Y399D02*
X7Y399D01*
X1201Y399D02*
X1201Y399D01*
X1233Y399D02*
X1236Y399D01*
X1463Y399D02*
X1463Y399D01*
X1496Y399D02*
X1499Y399D01*
X2083Y399D02*
X2090Y399D01*
X0Y398D02*
X7Y398D01*
X1201Y398D02*
X1201Y398D01*
X1233Y398D02*
X1236Y398D01*
X1463Y398D02*
X1463Y398D01*
X1496Y398D02*
X1499Y398D01*
X2083Y398D02*
X2090Y398D01*
X0Y397D02*
X7Y397D01*
X1201Y397D02*
X1201Y397D01*
X1233Y397D02*
X1236Y397D01*
X1463Y397D02*
X1463Y397D01*
X1496Y397D02*
X1499Y397D01*
X2083Y397D02*
X2090Y397D01*
X0Y396D02*
X7Y396D01*
X1201Y396D02*
X1201Y396D01*
X1233Y396D02*
X1236Y396D01*
X1463Y396D02*
X1463Y396D01*
X1496Y396D02*
X1499Y396D01*
X2083Y396D02*
X2090Y396D01*
X0Y395D02*
X7Y395D01*
X1201Y395D02*
X1201Y395D01*
X1233Y395D02*
X1236Y395D01*
X1463Y395D02*
X1463Y395D01*
X1496Y395D02*
X1499Y395D01*
X2083Y395D02*
X2090Y395D01*
X0Y394D02*
X7Y394D01*
X1201Y394D02*
X1201Y394D01*
X1233Y394D02*
X1236Y394D01*
X1463Y394D02*
X1463Y394D01*
X1496Y394D02*
X1499Y394D01*
X2083Y394D02*
X2090Y394D01*
X0Y393D02*
X7Y393D01*
X1201Y393D02*
X1201Y393D01*
X1233Y393D02*
X1236Y393D01*
X1463Y393D02*
X1463Y393D01*
X1496Y393D02*
X1499Y393D01*
X2083Y393D02*
X2090Y393D01*
X0Y392D02*
X7Y392D01*
X1201Y392D02*
X1201Y392D01*
X1233Y392D02*
X1236Y392D01*
X1463Y392D02*
X1463Y392D01*
X1496Y392D02*
X1499Y392D01*
X2083Y392D02*
X2090Y392D01*
X0Y391D02*
X7Y391D01*
X1201Y391D02*
X1201Y391D01*
X1233Y391D02*
X1236Y391D01*
X1463Y391D02*
X1463Y391D01*
X1496Y391D02*
X1499Y391D01*
X2083Y391D02*
X2090Y391D01*
X0Y390D02*
X7Y390D01*
X1201Y390D02*
X1201Y390D01*
X1233Y390D02*
X1236Y390D01*
X1463Y390D02*
X1463Y390D01*
X1496Y390D02*
X1499Y390D01*
X2083Y390D02*
X2090Y390D01*
X0Y389D02*
X7Y389D01*
X1201Y389D02*
X1201Y389D01*
X1233Y389D02*
X1236Y389D01*
X1463Y389D02*
X1463Y389D01*
X1496Y389D02*
X1499Y389D01*
X2083Y389D02*
X2090Y389D01*
X0Y388D02*
X7Y388D01*
X1201Y388D02*
X1201Y388D01*
X1233Y388D02*
X1236Y388D01*
X1463Y388D02*
X1463Y388D01*
X1496Y388D02*
X1499Y388D01*
X2083Y388D02*
X2090Y388D01*
X0Y387D02*
X7Y387D01*
X1201Y387D02*
X1201Y387D01*
X1233Y387D02*
X1236Y387D01*
X1463Y387D02*
X1463Y387D01*
X1496Y387D02*
X1499Y387D01*
X2083Y387D02*
X2090Y387D01*
X0Y386D02*
X7Y386D01*
X1201Y386D02*
X1201Y386D01*
X1233Y386D02*
X1236Y386D01*
X1463Y386D02*
X1463Y386D01*
X1496Y386D02*
X1499Y386D01*
X2083Y386D02*
X2090Y386D01*
X0Y385D02*
X7Y385D01*
X1201Y385D02*
X1201Y385D01*
X1233Y385D02*
X1236Y385D01*
X1463Y385D02*
X1463Y385D01*
X1496Y385D02*
X1499Y385D01*
X2083Y385D02*
X2090Y385D01*
X0Y384D02*
X7Y384D01*
X1201Y384D02*
X1201Y384D01*
X1233Y384D02*
X1236Y384D01*
X1463Y384D02*
X1463Y384D01*
X1496Y384D02*
X1499Y384D01*
X2083Y384D02*
X2090Y384D01*
X0Y383D02*
X7Y383D01*
X1201Y383D02*
X1201Y383D01*
X1233Y383D02*
X1236Y383D01*
X1463Y383D02*
X1463Y383D01*
X1496Y383D02*
X1499Y383D01*
X2083Y383D02*
X2090Y383D01*
X0Y382D02*
X7Y382D01*
X1201Y382D02*
X1201Y382D01*
X1233Y382D02*
X1236Y382D01*
X1463Y382D02*
X1463Y382D01*
X1496Y382D02*
X1499Y382D01*
X2083Y382D02*
X2090Y382D01*
X0Y381D02*
X7Y381D01*
X1201Y381D02*
X1201Y381D01*
X1233Y381D02*
X1236Y381D01*
X1463Y381D02*
X1463Y381D01*
X1496Y381D02*
X1499Y381D01*
X2083Y381D02*
X2090Y381D01*
X0Y380D02*
X7Y380D01*
X1201Y380D02*
X1201Y380D01*
X1233Y380D02*
X1236Y380D01*
X1463Y380D02*
X1463Y380D01*
X1496Y380D02*
X1499Y380D01*
X2083Y380D02*
X2090Y380D01*
X0Y379D02*
X7Y379D01*
X1201Y379D02*
X1201Y379D01*
X1233Y379D02*
X1236Y379D01*
X1463Y379D02*
X1463Y379D01*
X1496Y379D02*
X1499Y379D01*
X2083Y379D02*
X2090Y379D01*
X0Y378D02*
X7Y378D01*
X1201Y378D02*
X1201Y378D01*
X1233Y378D02*
X1236Y378D01*
X1463Y378D02*
X1463Y378D01*
X1496Y378D02*
X1499Y378D01*
X2083Y378D02*
X2090Y378D01*
X0Y377D02*
X7Y377D01*
X1201Y377D02*
X1201Y377D01*
X1233Y377D02*
X1236Y377D01*
X1463Y377D02*
X1463Y377D01*
X1496Y377D02*
X1499Y377D01*
X2083Y377D02*
X2090Y377D01*
X0Y376D02*
X7Y376D01*
X1201Y376D02*
X1201Y376D01*
X1233Y376D02*
X1236Y376D01*
X1463Y376D02*
X1463Y376D01*
X1496Y376D02*
X1499Y376D01*
X2083Y376D02*
X2090Y376D01*
X0Y375D02*
X7Y375D01*
X1201Y375D02*
X1201Y375D01*
X1233Y375D02*
X1236Y375D01*
X1463Y375D02*
X1463Y375D01*
X1496Y375D02*
X1499Y375D01*
X2083Y375D02*
X2090Y375D01*
X0Y374D02*
X7Y374D01*
X1201Y374D02*
X1201Y374D01*
X1233Y374D02*
X1233Y374D01*
X1463Y374D02*
X1463Y374D01*
X1496Y374D02*
X1496Y374D01*
X2083Y374D02*
X2090Y374D01*
X0Y373D02*
X7Y373D01*
X1201Y373D02*
X1201Y373D01*
X1233Y373D02*
X1233Y373D01*
X1463Y373D02*
X1463Y373D01*
X1496Y373D02*
X1496Y373D01*
X2083Y373D02*
X2090Y373D01*
X0Y372D02*
X7Y372D01*
X1201Y372D02*
X1201Y372D01*
X1233Y372D02*
X1233Y372D01*
X1463Y372D02*
X1463Y372D01*
X1496Y372D02*
X1496Y372D01*
X2083Y372D02*
X2090Y372D01*
X0Y371D02*
X7Y371D01*
X1201Y371D02*
X1201Y371D01*
X1233Y371D02*
X1233Y371D01*
X1463Y371D02*
X1463Y371D01*
X1496Y371D02*
X1496Y371D01*
X2083Y371D02*
X2090Y371D01*
X0Y370D02*
X7Y370D01*
X1198Y370D02*
X1201Y370D01*
X1233Y370D02*
X1233Y370D01*
X1460Y370D02*
X1463Y370D01*
X1496Y370D02*
X1496Y370D01*
X2083Y370D02*
X2090Y370D01*
X0Y369D02*
X7Y369D01*
X1198Y369D02*
X1201Y369D01*
X1233Y369D02*
X1233Y369D01*
X1460Y369D02*
X1463Y369D01*
X1496Y369D02*
X1496Y369D01*
X2083Y369D02*
X2090Y369D01*
X0Y368D02*
X7Y368D01*
X1198Y368D02*
X1201Y368D01*
X1233Y368D02*
X1233Y368D01*
X1460Y368D02*
X1463Y368D01*
X1496Y368D02*
X1496Y368D01*
X2083Y368D02*
X2090Y368D01*
X0Y367D02*
X7Y367D01*
X1198Y367D02*
X1201Y367D01*
X1233Y367D02*
X1233Y367D01*
X1460Y367D02*
X1463Y367D01*
X1496Y367D02*
X1496Y367D01*
X2083Y367D02*
X2090Y367D01*
X0Y366D02*
X7Y366D01*
X1198Y366D02*
X1201Y366D01*
X1233Y366D02*
X1233Y366D01*
X1460Y366D02*
X1463Y366D01*
X1496Y366D02*
X1496Y366D01*
X2083Y366D02*
X2090Y366D01*
X0Y365D02*
X7Y365D01*
X1198Y365D02*
X1201Y365D01*
X1233Y365D02*
X1233Y365D01*
X1460Y365D02*
X1463Y365D01*
X1496Y365D02*
X1496Y365D01*
X2083Y365D02*
X2090Y365D01*
X0Y364D02*
X7Y364D01*
X1198Y364D02*
X1201Y364D01*
X1233Y364D02*
X1233Y364D01*
X1460Y364D02*
X1463Y364D01*
X1496Y364D02*
X1496Y364D01*
X2083Y364D02*
X2090Y364D01*
X0Y363D02*
X7Y363D01*
X1198Y363D02*
X1201Y363D01*
X1233Y363D02*
X1233Y363D01*
X1460Y363D02*
X1463Y363D01*
X1496Y363D02*
X1496Y363D01*
X2083Y363D02*
X2090Y363D01*
X0Y362D02*
X7Y362D01*
X1198Y362D02*
X1201Y362D01*
X1233Y362D02*
X1233Y362D01*
X1460Y362D02*
X1463Y362D01*
X1496Y362D02*
X1496Y362D01*
X2083Y362D02*
X2090Y362D01*
X0Y361D02*
X7Y361D01*
X1198Y361D02*
X1201Y361D01*
X1233Y361D02*
X1233Y361D01*
X1460Y361D02*
X1463Y361D01*
X1496Y361D02*
X1496Y361D01*
X2083Y361D02*
X2090Y361D01*
X0Y360D02*
X7Y360D01*
X1198Y360D02*
X1201Y360D01*
X1233Y360D02*
X1233Y360D01*
X1460Y360D02*
X1463Y360D01*
X1496Y360D02*
X1496Y360D01*
X2083Y360D02*
X2090Y360D01*
X0Y359D02*
X7Y359D01*
X1198Y359D02*
X1201Y359D01*
X1233Y359D02*
X1233Y359D01*
X1460Y359D02*
X1463Y359D01*
X1496Y359D02*
X1496Y359D01*
X2083Y359D02*
X2090Y359D01*
X0Y358D02*
X7Y358D01*
X1198Y358D02*
X1201Y358D01*
X1233Y358D02*
X1233Y358D01*
X1460Y358D02*
X1463Y358D01*
X1496Y358D02*
X1496Y358D01*
X2083Y358D02*
X2090Y358D01*
X0Y357D02*
X7Y357D01*
X1198Y357D02*
X1201Y357D01*
X1233Y357D02*
X1233Y357D01*
X1460Y357D02*
X1463Y357D01*
X1496Y357D02*
X1496Y357D01*
X2083Y357D02*
X2090Y357D01*
X0Y356D02*
X7Y356D01*
X1198Y356D02*
X1201Y356D01*
X1233Y356D02*
X1233Y356D01*
X1460Y356D02*
X1463Y356D01*
X1496Y356D02*
X1496Y356D01*
X2083Y356D02*
X2090Y356D01*
X0Y355D02*
X7Y355D01*
X1198Y355D02*
X1201Y355D01*
X1233Y355D02*
X1233Y355D01*
X1460Y355D02*
X1463Y355D01*
X1496Y355D02*
X1496Y355D01*
X2083Y355D02*
X2090Y355D01*
X0Y354D02*
X7Y354D01*
X1198Y354D02*
X1201Y354D01*
X1233Y354D02*
X1233Y354D01*
X1460Y354D02*
X1463Y354D01*
X1496Y354D02*
X1496Y354D01*
X2083Y354D02*
X2090Y354D01*
X0Y353D02*
X7Y353D01*
X1198Y353D02*
X1201Y353D01*
X1233Y353D02*
X1233Y353D01*
X1460Y353D02*
X1463Y353D01*
X1496Y353D02*
X1496Y353D01*
X2083Y353D02*
X2090Y353D01*
X0Y352D02*
X7Y352D01*
X1198Y352D02*
X1201Y352D01*
X1233Y352D02*
X1233Y352D01*
X1460Y352D02*
X1463Y352D01*
X1496Y352D02*
X1496Y352D01*
X2083Y352D02*
X2090Y352D01*
X0Y351D02*
X7Y351D01*
X1198Y351D02*
X1201Y351D01*
X1233Y351D02*
X1233Y351D01*
X1460Y351D02*
X1463Y351D01*
X1496Y351D02*
X1496Y351D01*
X2083Y351D02*
X2090Y351D01*
X0Y350D02*
X7Y350D01*
X1198Y350D02*
X1201Y350D01*
X1233Y350D02*
X1233Y350D01*
X1460Y350D02*
X1463Y350D01*
X1496Y350D02*
X1496Y350D01*
X2083Y350D02*
X2090Y350D01*
X0Y349D02*
X7Y349D01*
X1198Y349D02*
X1201Y349D01*
X1233Y349D02*
X1233Y349D01*
X1460Y349D02*
X1463Y349D01*
X1496Y349D02*
X1496Y349D01*
X2083Y349D02*
X2090Y349D01*
X0Y348D02*
X7Y348D01*
X1198Y348D02*
X1201Y348D01*
X1233Y348D02*
X1233Y348D01*
X1460Y348D02*
X1463Y348D01*
X1496Y348D02*
X1496Y348D01*
X2083Y348D02*
X2090Y348D01*
X0Y347D02*
X7Y347D01*
X1198Y347D02*
X1201Y347D01*
X1233Y347D02*
X1233Y347D01*
X1460Y347D02*
X1463Y347D01*
X1496Y347D02*
X1496Y347D01*
X2083Y347D02*
X2090Y347D01*
X0Y346D02*
X7Y346D01*
X1198Y346D02*
X1201Y346D01*
X1233Y346D02*
X1233Y346D01*
X1460Y346D02*
X1463Y346D01*
X1496Y346D02*
X1496Y346D01*
X2083Y346D02*
X2090Y346D01*
X0Y345D02*
X7Y345D01*
X1198Y345D02*
X1201Y345D01*
X1233Y345D02*
X1233Y345D01*
X1460Y345D02*
X1463Y345D01*
X1496Y345D02*
X1496Y345D01*
X2083Y345D02*
X2090Y345D01*
X0Y344D02*
X7Y344D01*
X1198Y344D02*
X1201Y344D01*
X1233Y344D02*
X1233Y344D01*
X1460Y344D02*
X1463Y344D01*
X1496Y344D02*
X1496Y344D01*
X2083Y344D02*
X2090Y344D01*
X0Y343D02*
X7Y343D01*
X1198Y343D02*
X1201Y343D01*
X1233Y343D02*
X1233Y343D01*
X1460Y343D02*
X1463Y343D01*
X1496Y343D02*
X1496Y343D01*
X2083Y343D02*
X2090Y343D01*
X0Y342D02*
X7Y342D01*
X1198Y342D02*
X1201Y342D01*
X1233Y342D02*
X1233Y342D01*
X1460Y342D02*
X1463Y342D01*
X1496Y342D02*
X1496Y342D01*
X2083Y342D02*
X2090Y342D01*
X0Y341D02*
X7Y341D01*
X1198Y341D02*
X1201Y341D01*
X1233Y341D02*
X1233Y341D01*
X1460Y341D02*
X1463Y341D01*
X1496Y341D02*
X1496Y341D01*
X2083Y341D02*
X2090Y341D01*
X0Y340D02*
X7Y340D01*
X1198Y340D02*
X1201Y340D01*
X1233Y340D02*
X1233Y340D01*
X1460Y340D02*
X1463Y340D01*
X1496Y340D02*
X1496Y340D01*
X2083Y340D02*
X2090Y340D01*
X0Y339D02*
X7Y339D01*
X1198Y339D02*
X1201Y339D01*
X1233Y339D02*
X1233Y339D01*
X1460Y339D02*
X1463Y339D01*
X1496Y339D02*
X1496Y339D01*
X2083Y339D02*
X2090Y339D01*
X0Y338D02*
X7Y338D01*
X1198Y338D02*
X1201Y338D01*
X1233Y338D02*
X1233Y338D01*
X1460Y338D02*
X1463Y338D01*
X1496Y338D02*
X1496Y338D01*
X2083Y338D02*
X2090Y338D01*
X0Y337D02*
X7Y337D01*
X1198Y337D02*
X1201Y337D01*
X1233Y337D02*
X1233Y337D01*
X1460Y337D02*
X1463Y337D01*
X1496Y337D02*
X1496Y337D01*
X2083Y337D02*
X2090Y337D01*
X0Y336D02*
X7Y336D01*
X1198Y336D02*
X1233Y336D01*
X1460Y336D02*
X1496Y336D01*
X2083Y336D02*
X2090Y336D01*
X0Y335D02*
X7Y335D01*
X1198Y335D02*
X1233Y335D01*
X1460Y335D02*
X1496Y335D01*
X2083Y335D02*
X2090Y335D01*
X0Y334D02*
X7Y334D01*
X1198Y334D02*
X1233Y334D01*
X1460Y334D02*
X1496Y334D01*
X2083Y334D02*
X2090Y334D01*
X0Y333D02*
X7Y333D01*
X1198Y333D02*
X1236Y333D01*
X1460Y333D02*
X1499Y333D01*
X2083Y333D02*
X2090Y333D01*
X0Y332D02*
X7Y332D01*
X2083Y332D02*
X2090Y332D01*
X0Y331D02*
X7Y331D01*
X2083Y331D02*
X2090Y331D01*
X0Y330D02*
X7Y330D01*
X2083Y330D02*
X2090Y330D01*
X0Y329D02*
X7Y329D01*
X2083Y329D02*
X2090Y329D01*
X0Y328D02*
X7Y328D01*
X2083Y328D02*
X2090Y328D01*
X0Y327D02*
X7Y327D01*
X2083Y327D02*
X2090Y327D01*
X0Y326D02*
X7Y326D01*
X2083Y326D02*
X2090Y326D01*
X0Y325D02*
X7Y325D01*
X2083Y325D02*
X2090Y325D01*
X0Y324D02*
X7Y324D01*
X2083Y324D02*
X2090Y324D01*
X0Y323D02*
X7Y323D01*
X2083Y323D02*
X2090Y323D01*
X0Y322D02*
X7Y322D01*
X2083Y322D02*
X2090Y322D01*
X0Y321D02*
X7Y321D01*
X2083Y321D02*
X2090Y321D01*
X0Y320D02*
X7Y320D01*
X2083Y320D02*
X2090Y320D01*
X0Y319D02*
X7Y319D01*
X2083Y319D02*
X2090Y319D01*
X0Y318D02*
X7Y318D01*
X1151Y318D02*
X1153Y318D01*
X1174Y318D02*
X1182Y318D01*
X1207Y318D02*
X1233Y318D01*
X1251Y318D02*
X1253Y318D01*
X1274Y318D02*
X1283Y318D01*
X2083Y318D02*
X2090Y318D01*
X0Y317D02*
X7Y317D01*
X1150Y317D02*
X1154Y317D01*
X1173Y317D02*
X1182Y317D01*
X1204Y317D02*
X1233Y317D01*
X1250Y317D02*
X1254Y317D01*
X1274Y317D02*
X1283Y317D01*
X2083Y317D02*
X2090Y317D01*
X0Y316D02*
X7Y316D01*
X1149Y316D02*
X1155Y316D01*
X1173Y316D02*
X1182Y316D01*
X1203Y316D02*
X1233Y316D01*
X1249Y316D02*
X1255Y316D01*
X1273Y316D02*
X1283Y316D01*
X2083Y316D02*
X2090Y316D01*
X0Y315D02*
X7Y315D01*
X1149Y315D02*
X1155Y315D01*
X1173Y315D02*
X1182Y315D01*
X1202Y315D02*
X1233Y315D01*
X1249Y315D02*
X1255Y315D01*
X1273Y315D02*
X1283Y315D01*
X2083Y315D02*
X2090Y315D01*
X0Y314D02*
X7Y314D01*
X1149Y314D02*
X1155Y314D01*
X1172Y314D02*
X1182Y314D01*
X1201Y314D02*
X1233Y314D01*
X1249Y314D02*
X1255Y314D01*
X1273Y314D02*
X1283Y314D01*
X2083Y314D02*
X2090Y314D01*
X0Y313D02*
X7Y313D01*
X1149Y313D02*
X1155Y313D01*
X1172Y313D02*
X1182Y313D01*
X1200Y313D02*
X1233Y313D01*
X1249Y313D02*
X1255Y313D01*
X1272Y313D02*
X1283Y313D01*
X2083Y313D02*
X2090Y313D01*
X0Y312D02*
X7Y312D01*
X1149Y312D02*
X1155Y312D01*
X1171Y312D02*
X1182Y312D01*
X1200Y312D02*
X1233Y312D01*
X1249Y312D02*
X1255Y312D01*
X1272Y312D02*
X1283Y312D01*
X2083Y312D02*
X2090Y312D01*
X0Y311D02*
X7Y311D01*
X1149Y311D02*
X1155Y311D01*
X1171Y311D02*
X1182Y311D01*
X1199Y311D02*
X1207Y311D01*
X1226Y311D02*
X1233Y311D01*
X1249Y311D02*
X1255Y311D01*
X1271Y311D02*
X1283Y311D01*
X2083Y311D02*
X2090Y311D01*
X0Y310D02*
X7Y310D01*
X1149Y310D02*
X1155Y310D01*
X1170Y310D02*
X1182Y310D01*
X1199Y310D02*
X1206Y310D01*
X1227Y310D02*
X1233Y310D01*
X1249Y310D02*
X1255Y310D01*
X1271Y310D02*
X1283Y310D01*
X2083Y310D02*
X2090Y310D01*
X0Y309D02*
X7Y309D01*
X1149Y309D02*
X1155Y309D01*
X1170Y309D02*
X1182Y309D01*
X1199Y309D02*
X1205Y309D01*
X1227Y309D02*
X1233Y309D01*
X1249Y309D02*
X1255Y309D01*
X1270Y309D02*
X1283Y309D01*
X2083Y309D02*
X2090Y309D01*
X0Y308D02*
X7Y308D01*
X1149Y308D02*
X1155Y308D01*
X1170Y308D02*
X1182Y308D01*
X1199Y308D02*
X1205Y308D01*
X1227Y308D02*
X1233Y308D01*
X1249Y308D02*
X1255Y308D01*
X1270Y308D02*
X1283Y308D01*
X2083Y308D02*
X2090Y308D01*
X0Y307D02*
X7Y307D01*
X1149Y307D02*
X1155Y307D01*
X1169Y307D02*
X1182Y307D01*
X1199Y307D02*
X1205Y307D01*
X1227Y307D02*
X1233Y307D01*
X1249Y307D02*
X1255Y307D01*
X1269Y307D02*
X1283Y307D01*
X2083Y307D02*
X2090Y307D01*
X0Y306D02*
X7Y306D01*
X1149Y306D02*
X1155Y306D01*
X1169Y306D02*
X1182Y306D01*
X1199Y306D02*
X1205Y306D01*
X1227Y306D02*
X1233Y306D01*
X1249Y306D02*
X1255Y306D01*
X1269Y306D02*
X1283Y306D01*
X2083Y306D02*
X2090Y306D01*
X0Y305D02*
X7Y305D01*
X1149Y305D02*
X1155Y305D01*
X1168Y305D02*
X1182Y305D01*
X1199Y305D02*
X1205Y305D01*
X1227Y305D02*
X1233Y305D01*
X1249Y305D02*
X1255Y305D01*
X1269Y305D02*
X1283Y305D01*
X2083Y305D02*
X2090Y305D01*
X0Y304D02*
X7Y304D01*
X1149Y304D02*
X1155Y304D01*
X1168Y304D02*
X1174Y304D01*
X1176Y304D02*
X1182Y304D01*
X1199Y304D02*
X1205Y304D01*
X1227Y304D02*
X1233Y304D01*
X1249Y304D02*
X1255Y304D01*
X1268Y304D02*
X1275Y304D01*
X1277Y304D02*
X1283Y304D01*
X2083Y304D02*
X2090Y304D01*
X0Y303D02*
X7Y303D01*
X1149Y303D02*
X1155Y303D01*
X1167Y303D02*
X1174Y303D01*
X1176Y303D02*
X1182Y303D01*
X1199Y303D02*
X1205Y303D01*
X1227Y303D02*
X1233Y303D01*
X1249Y303D02*
X1255Y303D01*
X1268Y303D02*
X1274Y303D01*
X1277Y303D02*
X1283Y303D01*
X2083Y303D02*
X2090Y303D01*
X0Y302D02*
X7Y302D01*
X1149Y302D02*
X1155Y302D01*
X1167Y302D02*
X1174Y302D01*
X1176Y302D02*
X1182Y302D01*
X1199Y302D02*
X1205Y302D01*
X1227Y302D02*
X1233Y302D01*
X1249Y302D02*
X1255Y302D01*
X1267Y302D02*
X1274Y302D01*
X1277Y302D02*
X1283Y302D01*
X2083Y302D02*
X2090Y302D01*
X0Y301D02*
X7Y301D01*
X1149Y301D02*
X1155Y301D01*
X1166Y301D02*
X1173Y301D01*
X1176Y301D02*
X1182Y301D01*
X1199Y301D02*
X1205Y301D01*
X1227Y301D02*
X1233Y301D01*
X1249Y301D02*
X1255Y301D01*
X1267Y301D02*
X1274Y301D01*
X1277Y301D02*
X1283Y301D01*
X2083Y301D02*
X2090Y301D01*
X0Y300D02*
X7Y300D01*
X1149Y300D02*
X1155Y300D01*
X1166Y300D02*
X1173Y300D01*
X1176Y300D02*
X1182Y300D01*
X1199Y300D02*
X1205Y300D01*
X1227Y300D02*
X1233Y300D01*
X1249Y300D02*
X1255Y300D01*
X1266Y300D02*
X1273Y300D01*
X1277Y300D02*
X1283Y300D01*
X2083Y300D02*
X2090Y300D01*
X0Y299D02*
X7Y299D01*
X1149Y299D02*
X1155Y299D01*
X1166Y299D02*
X1172Y299D01*
X1176Y299D02*
X1182Y299D01*
X1199Y299D02*
X1205Y299D01*
X1227Y299D02*
X1233Y299D01*
X1249Y299D02*
X1255Y299D01*
X1266Y299D02*
X1273Y299D01*
X1277Y299D02*
X1283Y299D01*
X2083Y299D02*
X2090Y299D01*
X0Y298D02*
X7Y298D01*
X1149Y298D02*
X1155Y298D01*
X1165Y298D02*
X1172Y298D01*
X1176Y298D02*
X1182Y298D01*
X1199Y298D02*
X1205Y298D01*
X1227Y298D02*
X1233Y298D01*
X1249Y298D02*
X1255Y298D01*
X1266Y298D02*
X1272Y298D01*
X1277Y298D02*
X1283Y298D01*
X2083Y298D02*
X2090Y298D01*
X0Y297D02*
X7Y297D01*
X1149Y297D02*
X1155Y297D01*
X1165Y297D02*
X1171Y297D01*
X1176Y297D02*
X1182Y297D01*
X1199Y297D02*
X1205Y297D01*
X1227Y297D02*
X1233Y297D01*
X1249Y297D02*
X1255Y297D01*
X1265Y297D02*
X1272Y297D01*
X1277Y297D02*
X1283Y297D01*
X2083Y297D02*
X2090Y297D01*
X0Y296D02*
X7Y296D01*
X1149Y296D02*
X1155Y296D01*
X1164Y296D02*
X1171Y296D01*
X1176Y296D02*
X1182Y296D01*
X1199Y296D02*
X1205Y296D01*
X1227Y296D02*
X1233Y296D01*
X1249Y296D02*
X1255Y296D01*
X1265Y296D02*
X1271Y296D01*
X1277Y296D02*
X1283Y296D01*
X2083Y296D02*
X2090Y296D01*
X0Y295D02*
X7Y295D01*
X1149Y295D02*
X1155Y295D01*
X1164Y295D02*
X1171Y295D01*
X1176Y295D02*
X1182Y295D01*
X1199Y295D02*
X1205Y295D01*
X1227Y295D02*
X1233Y295D01*
X1249Y295D02*
X1255Y295D01*
X1264Y295D02*
X1271Y295D01*
X1277Y295D02*
X1283Y295D01*
X2083Y295D02*
X2090Y295D01*
X0Y294D02*
X7Y294D01*
X1149Y294D02*
X1155Y294D01*
X1163Y294D02*
X1170Y294D01*
X1176Y294D02*
X1182Y294D01*
X1199Y294D02*
X1205Y294D01*
X1227Y294D02*
X1233Y294D01*
X1249Y294D02*
X1255Y294D01*
X1264Y294D02*
X1270Y294D01*
X1277Y294D02*
X1283Y294D01*
X2083Y294D02*
X2090Y294D01*
X0Y293D02*
X7Y293D01*
X1149Y293D02*
X1155Y293D01*
X1163Y293D02*
X1170Y293D01*
X1176Y293D02*
X1182Y293D01*
X1199Y293D02*
X1206Y293D01*
X1227Y293D02*
X1233Y293D01*
X1249Y293D02*
X1255Y293D01*
X1263Y293D02*
X1270Y293D01*
X1277Y293D02*
X1283Y293D01*
X2083Y293D02*
X2090Y293D01*
X0Y292D02*
X7Y292D01*
X1149Y292D02*
X1155Y292D01*
X1163Y292D02*
X1169Y292D01*
X1176Y292D02*
X1182Y292D01*
X1200Y292D02*
X1208Y292D01*
X1226Y292D02*
X1233Y292D01*
X1249Y292D02*
X1255Y292D01*
X1263Y292D02*
X1270Y292D01*
X1277Y292D02*
X1283Y292D01*
X2083Y292D02*
X2090Y292D01*
X0Y291D02*
X7Y291D01*
X1149Y291D02*
X1155Y291D01*
X1162Y291D02*
X1169Y291D01*
X1176Y291D02*
X1182Y291D01*
X1200Y291D02*
X1233Y291D01*
X1249Y291D02*
X1255Y291D01*
X1262Y291D02*
X1269Y291D01*
X1277Y291D02*
X1283Y291D01*
X2083Y291D02*
X2090Y291D01*
X0Y290D02*
X7Y290D01*
X1149Y290D02*
X1155Y290D01*
X1162Y290D02*
X1168Y290D01*
X1176Y290D02*
X1182Y290D01*
X1201Y290D02*
X1233Y290D01*
X1249Y290D02*
X1255Y290D01*
X1262Y290D02*
X1269Y290D01*
X1277Y290D02*
X1283Y290D01*
X2083Y290D02*
X2090Y290D01*
X0Y289D02*
X7Y289D01*
X1149Y289D02*
X1155Y289D01*
X1161Y289D02*
X1168Y289D01*
X1176Y289D02*
X1182Y289D01*
X1201Y289D02*
X1233Y289D01*
X1249Y289D02*
X1255Y289D01*
X1262Y289D02*
X1268Y289D01*
X1277Y289D02*
X1283Y289D01*
X2083Y289D02*
X2090Y289D01*
X0Y288D02*
X7Y288D01*
X1149Y288D02*
X1155Y288D01*
X1161Y288D02*
X1167Y288D01*
X1176Y288D02*
X1182Y288D01*
X1202Y288D02*
X1233Y288D01*
X1249Y288D02*
X1255Y288D01*
X1261Y288D02*
X1268Y288D01*
X1277Y288D02*
X1283Y288D01*
X2083Y288D02*
X2090Y288D01*
X0Y287D02*
X7Y287D01*
X1149Y287D02*
X1155Y287D01*
X1160Y287D02*
X1167Y287D01*
X1176Y287D02*
X1182Y287D01*
X1203Y287D02*
X1233Y287D01*
X1249Y287D02*
X1255Y287D01*
X1261Y287D02*
X1267Y287D01*
X1277Y287D02*
X1283Y287D01*
X2083Y287D02*
X2090Y287D01*
X0Y286D02*
X7Y286D01*
X1149Y286D02*
X1155Y286D01*
X1160Y286D02*
X1167Y286D01*
X1176Y286D02*
X1182Y286D01*
X1205Y286D02*
X1233Y286D01*
X1249Y286D02*
X1255Y286D01*
X1260Y286D02*
X1267Y286D01*
X1277Y286D02*
X1283Y286D01*
X2083Y286D02*
X2090Y286D01*
X0Y285D02*
X7Y285D01*
X1149Y285D02*
X1155Y285D01*
X1159Y285D02*
X1166Y285D01*
X1176Y285D02*
X1182Y285D01*
X1209Y285D02*
X1233Y285D01*
X1249Y285D02*
X1255Y285D01*
X1260Y285D02*
X1267Y285D01*
X1277Y285D02*
X1283Y285D01*
X2083Y285D02*
X2090Y285D01*
X0Y284D02*
X7Y284D01*
X1149Y284D02*
X1155Y284D01*
X1159Y284D02*
X1166Y284D01*
X1176Y284D02*
X1182Y284D01*
X1227Y284D02*
X1233Y284D01*
X1249Y284D02*
X1255Y284D01*
X1259Y284D02*
X1266Y284D01*
X1277Y284D02*
X1283Y284D01*
X2083Y284D02*
X2090Y284D01*
X0Y283D02*
X7Y283D01*
X1149Y283D02*
X1155Y283D01*
X1159Y283D02*
X1165Y283D01*
X1176Y283D02*
X1182Y283D01*
X1227Y283D02*
X1233Y283D01*
X1249Y283D02*
X1255Y283D01*
X1259Y283D02*
X1266Y283D01*
X1277Y283D02*
X1283Y283D01*
X2083Y283D02*
X2090Y283D01*
X0Y282D02*
X7Y282D01*
X1149Y282D02*
X1155Y282D01*
X1158Y282D02*
X1165Y282D01*
X1176Y282D02*
X1182Y282D01*
X1227Y282D02*
X1233Y282D01*
X1249Y282D02*
X1255Y282D01*
X1259Y282D02*
X1265Y282D01*
X1277Y282D02*
X1283Y282D01*
X2083Y282D02*
X2090Y282D01*
X0Y281D02*
X7Y281D01*
X1149Y281D02*
X1155Y281D01*
X1158Y281D02*
X1164Y281D01*
X1176Y281D02*
X1182Y281D01*
X1227Y281D02*
X1233Y281D01*
X1249Y281D02*
X1255Y281D01*
X1258Y281D02*
X1265Y281D01*
X1277Y281D02*
X1283Y281D01*
X2083Y281D02*
X2090Y281D01*
X0Y280D02*
X7Y280D01*
X1149Y280D02*
X1155Y280D01*
X1157Y280D02*
X1164Y280D01*
X1176Y280D02*
X1182Y280D01*
X1227Y280D02*
X1233Y280D01*
X1249Y280D02*
X1255Y280D01*
X1258Y280D02*
X1264Y280D01*
X1277Y280D02*
X1283Y280D01*
X2083Y280D02*
X2090Y280D01*
X0Y279D02*
X7Y279D01*
X1149Y279D02*
X1155Y279D01*
X1157Y279D02*
X1164Y279D01*
X1176Y279D02*
X1182Y279D01*
X1227Y279D02*
X1233Y279D01*
X1249Y279D02*
X1255Y279D01*
X1257Y279D02*
X1264Y279D01*
X1277Y279D02*
X1283Y279D01*
X2083Y279D02*
X2090Y279D01*
X0Y278D02*
X7Y278D01*
X1149Y278D02*
X1163Y278D01*
X1176Y278D02*
X1182Y278D01*
X1227Y278D02*
X1233Y278D01*
X1249Y278D02*
X1255Y278D01*
X1257Y278D02*
X1263Y278D01*
X1277Y278D02*
X1283Y278D01*
X2083Y278D02*
X2090Y278D01*
X0Y277D02*
X7Y277D01*
X1149Y277D02*
X1163Y277D01*
X1176Y277D02*
X1182Y277D01*
X1227Y277D02*
X1233Y277D01*
X1249Y277D02*
X1263Y277D01*
X1277Y277D02*
X1283Y277D01*
X2083Y277D02*
X2090Y277D01*
X0Y276D02*
X7Y276D01*
X1149Y276D02*
X1162Y276D01*
X1176Y276D02*
X1182Y276D01*
X1227Y276D02*
X1233Y276D01*
X1249Y276D02*
X1263Y276D01*
X1277Y276D02*
X1283Y276D01*
X2083Y276D02*
X2090Y276D01*
X0Y275D02*
X7Y275D01*
X1149Y275D02*
X1162Y275D01*
X1176Y275D02*
X1182Y275D01*
X1227Y275D02*
X1233Y275D01*
X1249Y275D02*
X1262Y275D01*
X1277Y275D02*
X1283Y275D01*
X2083Y275D02*
X2090Y275D01*
X0Y274D02*
X7Y274D01*
X1149Y274D02*
X1161Y274D01*
X1176Y274D02*
X1182Y274D01*
X1227Y274D02*
X1233Y274D01*
X1249Y274D02*
X1262Y274D01*
X1277Y274D02*
X1283Y274D01*
X2083Y274D02*
X2090Y274D01*
X0Y273D02*
X7Y273D01*
X1149Y273D02*
X1161Y273D01*
X1176Y273D02*
X1182Y273D01*
X1227Y273D02*
X1233Y273D01*
X1249Y273D02*
X1261Y273D01*
X1277Y273D02*
X1283Y273D01*
X2083Y273D02*
X2090Y273D01*
X0Y272D02*
X7Y272D01*
X1149Y272D02*
X1160Y272D01*
X1176Y272D02*
X1182Y272D01*
X1227Y272D02*
X1233Y272D01*
X1249Y272D02*
X1261Y272D01*
X1277Y272D02*
X1283Y272D01*
X2083Y272D02*
X2090Y272D01*
X0Y271D02*
X7Y271D01*
X1149Y271D02*
X1160Y271D01*
X1176Y271D02*
X1182Y271D01*
X1227Y271D02*
X1233Y271D01*
X1249Y271D02*
X1260Y271D01*
X1277Y271D02*
X1283Y271D01*
X2083Y271D02*
X2090Y271D01*
X0Y270D02*
X7Y270D01*
X1149Y270D02*
X1160Y270D01*
X1176Y270D02*
X1182Y270D01*
X1227Y270D02*
X1233Y270D01*
X1249Y270D02*
X1260Y270D01*
X1277Y270D02*
X1283Y270D01*
X2083Y270D02*
X2090Y270D01*
X0Y269D02*
X7Y269D01*
X1149Y269D02*
X1159Y269D01*
X1176Y269D02*
X1182Y269D01*
X1227Y269D02*
X1233Y269D01*
X1249Y269D02*
X1260Y269D01*
X1277Y269D02*
X1283Y269D01*
X2083Y269D02*
X2090Y269D01*
X0Y268D02*
X7Y268D01*
X1149Y268D02*
X1159Y268D01*
X1176Y268D02*
X1182Y268D01*
X1227Y268D02*
X1233Y268D01*
X1249Y268D02*
X1259Y268D01*
X1277Y268D02*
X1283Y268D01*
X2083Y268D02*
X2090Y268D01*
X0Y267D02*
X7Y267D01*
X1149Y267D02*
X1158Y267D01*
X1176Y267D02*
X1182Y267D01*
X1227Y267D02*
X1232Y267D01*
X1249Y267D02*
X1259Y267D01*
X1277Y267D02*
X1283Y267D01*
X2083Y267D02*
X2090Y267D01*
X0Y266D02*
X7Y266D01*
X1149Y266D02*
X1158Y266D01*
X1177Y266D02*
X1182Y266D01*
X1227Y266D02*
X1232Y266D01*
X1249Y266D02*
X1258Y266D01*
X1277Y266D02*
X1282Y266D01*
X2083Y266D02*
X2090Y266D01*
X0Y265D02*
X7Y265D01*
X1149Y265D02*
X1157Y265D01*
X1178Y265D02*
X1181Y265D01*
X1228Y265D02*
X1231Y265D01*
X1249Y265D02*
X1258Y265D01*
X1278Y265D02*
X1281Y265D01*
X2083Y265D02*
X2090Y265D01*
X0Y264D02*
X7Y264D01*
X2083Y264D02*
X2090Y264D01*
X0Y263D02*
X7Y263D01*
X2083Y263D02*
X2090Y263D01*
X0Y262D02*
X7Y262D01*
X2083Y262D02*
X2090Y262D01*
X0Y261D02*
X7Y261D01*
X2083Y261D02*
X2090Y261D01*
X0Y260D02*
X7Y260D01*
X2083Y260D02*
X2090Y260D01*
X0Y259D02*
X7Y259D01*
X2083Y259D02*
X2090Y259D01*
X0Y258D02*
X7Y258D01*
X2083Y258D02*
X2090Y258D01*
X0Y257D02*
X7Y257D01*
X2083Y257D02*
X2090Y257D01*
X0Y256D02*
X7Y256D01*
X2083Y256D02*
X2090Y256D01*
X0Y255D02*
X7Y255D01*
X2083Y255D02*
X2090Y255D01*
X0Y254D02*
X7Y254D01*
X2083Y254D02*
X2090Y254D01*
X0Y253D02*
X7Y253D01*
X2083Y253D02*
X2090Y253D01*
X0Y252D02*
X7Y252D01*
X2083Y252D02*
X2090Y252D01*
X0Y251D02*
X7Y251D01*
X2083Y251D02*
X2090Y251D01*
X0Y250D02*
X7Y250D01*
X2083Y250D02*
X2090Y250D01*
X0Y249D02*
X7Y249D01*
X2083Y249D02*
X2090Y249D01*
X0Y248D02*
X7Y248D01*
X2083Y248D02*
X2090Y248D01*
X0Y247D02*
X7Y247D01*
X2083Y247D02*
X2090Y247D01*
X0Y246D02*
X7Y246D01*
X2083Y246D02*
X2090Y246D01*
X0Y245D02*
X7Y245D01*
X2083Y245D02*
X2090Y245D01*
X0Y244D02*
X7Y244D01*
X2083Y244D02*
X2090Y244D01*
X0Y243D02*
X7Y243D01*
X2083Y243D02*
X2090Y243D01*
X0Y242D02*
X7Y242D01*
X2083Y242D02*
X2090Y242D01*
X0Y241D02*
X7Y241D01*
X2083Y241D02*
X2090Y241D01*
X0Y240D02*
X7Y240D01*
X2083Y240D02*
X2090Y240D01*
X0Y239D02*
X7Y239D01*
X2083Y239D02*
X2090Y239D01*
X0Y238D02*
X7Y238D01*
X2083Y238D02*
X2090Y238D01*
X0Y237D02*
X7Y237D01*
X2083Y237D02*
X2090Y237D01*
X0Y236D02*
X7Y236D01*
X2083Y236D02*
X2090Y236D01*
X0Y235D02*
X7Y235D01*
X2083Y235D02*
X2090Y235D01*
X0Y234D02*
X7Y234D01*
X2083Y234D02*
X2090Y234D01*
X0Y233D02*
X7Y233D01*
X2083Y233D02*
X2090Y233D01*
X0Y232D02*
X7Y232D01*
X2083Y232D02*
X2090Y232D01*
X0Y231D02*
X7Y231D01*
X2083Y231D02*
X2090Y231D01*
X0Y230D02*
X7Y230D01*
X2083Y230D02*
X2090Y230D01*
X0Y229D02*
X7Y229D01*
X2083Y229D02*
X2090Y229D01*
X0Y228D02*
X7Y228D01*
X2083Y228D02*
X2090Y228D01*
X0Y227D02*
X7Y227D01*
X2083Y227D02*
X2090Y227D01*
X0Y226D02*
X7Y226D01*
X2083Y226D02*
X2090Y226D01*
X0Y225D02*
X7Y225D01*
X2083Y225D02*
X2090Y225D01*
X0Y224D02*
X7Y224D01*
X2083Y224D02*
X2090Y224D01*
X0Y223D02*
X7Y223D01*
X2083Y223D02*
X2090Y223D01*
X0Y222D02*
X7Y222D01*
X2083Y222D02*
X2090Y222D01*
X0Y221D02*
X7Y221D01*
X2083Y221D02*
X2090Y221D01*
X0Y220D02*
X7Y220D01*
X2083Y220D02*
X2090Y220D01*
X0Y219D02*
X7Y219D01*
X2083Y219D02*
X2090Y219D01*
X0Y218D02*
X7Y218D01*
X2083Y218D02*
X2090Y218D01*
X0Y217D02*
X7Y217D01*
X2083Y217D02*
X2090Y217D01*
X0Y216D02*
X7Y216D01*
X2083Y216D02*
X2090Y216D01*
X0Y215D02*
X7Y215D01*
X2083Y215D02*
X2090Y215D01*
X0Y214D02*
X7Y214D01*
X2083Y214D02*
X2090Y214D01*
X0Y213D02*
X7Y213D01*
X2083Y213D02*
X2090Y213D01*
X0Y212D02*
X7Y212D01*
X2083Y212D02*
X2090Y212D01*
X0Y211D02*
X7Y211D01*
X2083Y211D02*
X2090Y211D01*
X0Y210D02*
X7Y210D01*
X2083Y210D02*
X2090Y210D01*
X0Y209D02*
X7Y209D01*
X2083Y209D02*
X2090Y209D01*
X0Y208D02*
X7Y208D01*
X2083Y208D02*
X2090Y208D01*
X0Y207D02*
X7Y207D01*
X2083Y207D02*
X2090Y207D01*
X0Y206D02*
X7Y206D01*
X2083Y206D02*
X2090Y206D01*
X0Y205D02*
X7Y205D01*
X2083Y205D02*
X2090Y205D01*
X0Y204D02*
X7Y204D01*
X2083Y204D02*
X2090Y204D01*
X0Y203D02*
X7Y203D01*
X2083Y203D02*
X2090Y203D01*
X0Y202D02*
X7Y202D01*
X2083Y202D02*
X2090Y202D01*
X0Y201D02*
X7Y201D01*
X2083Y201D02*
X2090Y201D01*
X0Y200D02*
X7Y200D01*
X2083Y200D02*
X2090Y200D01*
X0Y199D02*
X7Y199D01*
X2083Y199D02*
X2090Y199D01*
X0Y198D02*
X7Y198D01*
X2083Y198D02*
X2090Y198D01*
X0Y197D02*
X7Y197D01*
X2083Y197D02*
X2090Y197D01*
X0Y196D02*
X7Y196D01*
X2083Y196D02*
X2090Y196D01*
X0Y195D02*
X7Y195D01*
X2083Y195D02*
X2090Y195D01*
X0Y194D02*
X7Y194D01*
X2083Y194D02*
X2090Y194D01*
X0Y193D02*
X7Y193D01*
X2083Y193D02*
X2090Y193D01*
X0Y192D02*
X7Y192D01*
X2083Y192D02*
X2090Y192D01*
X0Y191D02*
X7Y191D01*
X2083Y191D02*
X2090Y191D01*
X0Y190D02*
X7Y190D01*
X2083Y190D02*
X2090Y190D01*
X0Y189D02*
X7Y189D01*
X2083Y189D02*
X2090Y189D01*
X0Y188D02*
X7Y188D01*
X2083Y188D02*
X2090Y188D01*
X0Y187D02*
X7Y187D01*
X2083Y187D02*
X2090Y187D01*
X0Y186D02*
X7Y186D01*
X2083Y186D02*
X2090Y186D01*
X0Y185D02*
X7Y185D01*
X2083Y185D02*
X2090Y185D01*
X0Y184D02*
X7Y184D01*
X2083Y184D02*
X2090Y184D01*
X0Y183D02*
X7Y183D01*
X2083Y183D02*
X2090Y183D01*
X0Y182D02*
X7Y182D01*
X2083Y182D02*
X2090Y182D01*
X0Y181D02*
X7Y181D01*
X2083Y181D02*
X2090Y181D01*
X0Y180D02*
X7Y180D01*
X2083Y180D02*
X2090Y180D01*
X0Y179D02*
X7Y179D01*
X2083Y179D02*
X2090Y179D01*
X0Y178D02*
X7Y178D01*
X2083Y178D02*
X2090Y178D01*
X0Y177D02*
X7Y177D01*
X2083Y177D02*
X2090Y177D01*
X0Y176D02*
X7Y176D01*
X2083Y176D02*
X2090Y176D01*
X0Y175D02*
X7Y175D01*
X2083Y175D02*
X2090Y175D01*
X0Y174D02*
X7Y174D01*
X2083Y174D02*
X2090Y174D01*
X0Y173D02*
X7Y173D01*
X2083Y173D02*
X2090Y173D01*
X0Y172D02*
X7Y172D01*
X2083Y172D02*
X2090Y172D01*
X0Y171D02*
X7Y171D01*
X2083Y171D02*
X2090Y171D01*
X0Y170D02*
X7Y170D01*
X2083Y170D02*
X2090Y170D01*
X0Y169D02*
X7Y169D01*
X2083Y169D02*
X2090Y169D01*
X0Y168D02*
X7Y168D01*
X2083Y168D02*
X2090Y168D01*
X0Y167D02*
X7Y167D01*
X2083Y167D02*
X2090Y167D01*
X0Y166D02*
X7Y166D01*
X2083Y166D02*
X2090Y166D01*
X0Y165D02*
X7Y165D01*
X2083Y165D02*
X2090Y165D01*
X0Y164D02*
X7Y164D01*
X2083Y164D02*
X2090Y164D01*
X0Y163D02*
X7Y163D01*
X2083Y163D02*
X2090Y163D01*
X0Y162D02*
X7Y162D01*
X2083Y162D02*
X2090Y162D01*
X0Y161D02*
X7Y161D01*
X2083Y161D02*
X2090Y161D01*
X0Y160D02*
X7Y160D01*
X2083Y160D02*
X2090Y160D01*
X0Y159D02*
X7Y159D01*
X2083Y159D02*
X2090Y159D01*
X0Y158D02*
X7Y158D01*
X2083Y158D02*
X2090Y158D01*
X0Y157D02*
X7Y157D01*
X2083Y157D02*
X2090Y157D01*
X0Y156D02*
X7Y156D01*
X2083Y156D02*
X2090Y156D01*
X0Y155D02*
X7Y155D01*
X2083Y155D02*
X2090Y155D01*
X0Y154D02*
X7Y154D01*
X2083Y154D02*
X2090Y154D01*
X0Y153D02*
X7Y153D01*
X2083Y153D02*
X2090Y153D01*
X0Y152D02*
X7Y152D01*
X2083Y152D02*
X2090Y152D01*
X0Y151D02*
X7Y151D01*
X2083Y151D02*
X2090Y151D01*
X0Y150D02*
X7Y150D01*
X2083Y150D02*
X2090Y150D01*
X0Y149D02*
X7Y149D01*
X2083Y149D02*
X2090Y149D01*
X0Y148D02*
X7Y148D01*
X2083Y148D02*
X2090Y148D01*
X0Y147D02*
X7Y147D01*
X2083Y147D02*
X2090Y147D01*
X0Y146D02*
X7Y146D01*
X2083Y146D02*
X2090Y146D01*
X0Y145D02*
X7Y145D01*
X2083Y145D02*
X2090Y145D01*
X0Y144D02*
X7Y144D01*
X2083Y144D02*
X2090Y144D01*
X0Y143D02*
X7Y143D01*
X2083Y143D02*
X2090Y143D01*
X0Y142D02*
X7Y142D01*
X2083Y142D02*
X2090Y142D01*
X0Y141D02*
X7Y141D01*
X2083Y141D02*
X2090Y141D01*
X0Y140D02*
X7Y140D01*
X2083Y140D02*
X2090Y140D01*
X0Y139D02*
X7Y139D01*
X2083Y139D02*
X2090Y139D01*
X0Y138D02*
X7Y138D01*
X2083Y138D02*
X2090Y138D01*
X0Y137D02*
X7Y137D01*
X2083Y137D02*
X2090Y137D01*
X0Y136D02*
X7Y136D01*
X2083Y136D02*
X2090Y136D01*
X0Y135D02*
X7Y135D01*
X2083Y135D02*
X2090Y135D01*
X0Y134D02*
X7Y134D01*
X2083Y134D02*
X2090Y134D01*
X0Y133D02*
X7Y133D01*
X2083Y133D02*
X2090Y133D01*
X0Y132D02*
X7Y132D01*
X2083Y132D02*
X2090Y132D01*
X0Y131D02*
X7Y131D01*
X2083Y131D02*
X2090Y131D01*
X0Y130D02*
X7Y130D01*
X2083Y130D02*
X2090Y130D01*
X0Y129D02*
X7Y129D01*
X2083Y129D02*
X2090Y129D01*
X0Y128D02*
X7Y128D01*
X2083Y128D02*
X2090Y128D01*
X0Y127D02*
X7Y127D01*
X2083Y127D02*
X2090Y127D01*
X0Y126D02*
X7Y126D01*
X2083Y126D02*
X2090Y126D01*
X0Y125D02*
X7Y125D01*
X2083Y125D02*
X2090Y125D01*
X0Y124D02*
X7Y124D01*
X2083Y124D02*
X2090Y124D01*
X0Y123D02*
X7Y123D01*
X2083Y123D02*
X2090Y123D01*
X0Y122D02*
X7Y122D01*
X2083Y122D02*
X2090Y122D01*
X0Y121D02*
X7Y121D01*
X2083Y121D02*
X2090Y121D01*
X0Y120D02*
X7Y120D01*
X2083Y120D02*
X2090Y120D01*
X0Y119D02*
X7Y119D01*
X2083Y119D02*
X2090Y119D01*
X0Y118D02*
X7Y118D01*
X2083Y118D02*
X2090Y118D01*
X0Y117D02*
X7Y117D01*
X2083Y117D02*
X2090Y117D01*
X0Y116D02*
X7Y116D01*
X2083Y116D02*
X2090Y116D01*
X0Y115D02*
X7Y115D01*
X2083Y115D02*
X2090Y115D01*
X0Y114D02*
X7Y114D01*
X2083Y114D02*
X2090Y114D01*
X0Y113D02*
X7Y113D01*
X2083Y113D02*
X2090Y113D01*
X0Y112D02*
X7Y112D01*
X2083Y112D02*
X2090Y112D01*
X0Y111D02*
X7Y111D01*
X2083Y111D02*
X2090Y111D01*
X0Y110D02*
X7Y110D01*
X2083Y110D02*
X2090Y110D01*
X0Y109D02*
X7Y109D01*
X2083Y109D02*
X2090Y109D01*
X0Y108D02*
X7Y108D01*
X2083Y108D02*
X2090Y108D01*
X0Y107D02*
X7Y107D01*
X2083Y107D02*
X2090Y107D01*
X0Y106D02*
X7Y106D01*
X2083Y106D02*
X2090Y106D01*
X0Y105D02*
X7Y105D01*
X2083Y105D02*
X2090Y105D01*
X0Y104D02*
X7Y104D01*
X2083Y104D02*
X2090Y104D01*
X0Y103D02*
X7Y103D01*
X2083Y103D02*
X2090Y103D01*
X0Y102D02*
X7Y102D01*
X2083Y102D02*
X2090Y102D01*
X0Y101D02*
X7Y101D01*
X2083Y101D02*
X2090Y101D01*
X0Y100D02*
X7Y100D01*
X2083Y100D02*
X2090Y100D01*
X0Y99D02*
X7Y99D01*
X2083Y99D02*
X2090Y99D01*
X0Y98D02*
X7Y98D01*
X2083Y98D02*
X2090Y98D01*
X0Y97D02*
X7Y97D01*
X2083Y97D02*
X2090Y97D01*
X0Y96D02*
X7Y96D01*
X2083Y96D02*
X2090Y96D01*
X0Y95D02*
X7Y95D01*
X2083Y95D02*
X2090Y95D01*
X0Y94D02*
X7Y94D01*
X2083Y94D02*
X2090Y94D01*
X0Y93D02*
X7Y93D01*
X2083Y93D02*
X2090Y93D01*
X0Y92D02*
X7Y92D01*
X2083Y92D02*
X2090Y92D01*
X0Y91D02*
X7Y91D01*
X2083Y91D02*
X2090Y91D01*
X0Y90D02*
X7Y90D01*
X2083Y90D02*
X2090Y90D01*
X0Y89D02*
X7Y89D01*
X2083Y89D02*
X2090Y89D01*
X0Y88D02*
X7Y88D01*
X2083Y88D02*
X2090Y88D01*
X0Y87D02*
X7Y87D01*
X2083Y87D02*
X2090Y87D01*
X0Y86D02*
X7Y86D01*
X2083Y86D02*
X2090Y86D01*
X0Y85D02*
X7Y85D01*
X2083Y85D02*
X2090Y85D01*
X0Y84D02*
X7Y84D01*
X2083Y84D02*
X2090Y84D01*
X0Y83D02*
X7Y83D01*
X2083Y83D02*
X2090Y83D01*
X0Y82D02*
X7Y82D01*
X2083Y82D02*
X2090Y82D01*
X0Y81D02*
X7Y81D01*
X2083Y81D02*
X2090Y81D01*
X0Y80D02*
X7Y80D01*
X2083Y80D02*
X2090Y80D01*
X0Y79D02*
X7Y79D01*
X2083Y79D02*
X2090Y79D01*
X0Y78D02*
X7Y78D01*
X2083Y78D02*
X2090Y78D01*
X0Y77D02*
X7Y77D01*
X2083Y77D02*
X2090Y77D01*
X0Y76D02*
X7Y76D01*
X2083Y76D02*
X2090Y76D01*
X0Y75D02*
X7Y75D01*
X2083Y75D02*
X2090Y75D01*
X0Y74D02*
X7Y74D01*
X2083Y74D02*
X2090Y74D01*
X0Y73D02*
X7Y73D01*
X2083Y73D02*
X2090Y73D01*
X0Y72D02*
X7Y72D01*
X2083Y72D02*
X2090Y72D01*
X0Y71D02*
X7Y71D01*
X2083Y71D02*
X2090Y71D01*
X0Y70D02*
X7Y70D01*
X2083Y70D02*
X2090Y70D01*
X0Y69D02*
X7Y69D01*
X2083Y69D02*
X2090Y69D01*
X0Y68D02*
X7Y68D01*
X2083Y68D02*
X2090Y68D01*
X0Y67D02*
X7Y67D01*
X2083Y67D02*
X2090Y67D01*
X0Y66D02*
X7Y66D01*
X2083Y66D02*
X2090Y66D01*
X0Y65D02*
X7Y65D01*
X2083Y65D02*
X2090Y65D01*
X0Y64D02*
X7Y64D01*
X2083Y64D02*
X2090Y64D01*
X0Y63D02*
X7Y63D01*
X2083Y63D02*
X2090Y63D01*
X0Y62D02*
X7Y62D01*
X2083Y62D02*
X2090Y62D01*
X0Y61D02*
X7Y61D01*
X2083Y61D02*
X2090Y61D01*
X0Y60D02*
X7Y60D01*
X2083Y60D02*
X2090Y60D01*
X0Y59D02*
X7Y59D01*
X2083Y59D02*
X2090Y59D01*
X0Y58D02*
X7Y58D01*
X2083Y58D02*
X2090Y58D01*
X0Y57D02*
X7Y57D01*
X2083Y57D02*
X2090Y57D01*
X0Y56D02*
X7Y56D01*
X2083Y56D02*
X2090Y56D01*
X0Y55D02*
X7Y55D01*
X2083Y55D02*
X2090Y55D01*
X0Y54D02*
X7Y54D01*
X2083Y54D02*
X2090Y54D01*
X0Y53D02*
X7Y53D01*
X2083Y53D02*
X2090Y53D01*
X0Y52D02*
X7Y52D01*
X2083Y52D02*
X2090Y52D01*
X0Y51D02*
X7Y51D01*
X2083Y51D02*
X2090Y51D01*
X0Y50D02*
X7Y50D01*
X2083Y50D02*
X2090Y50D01*
X0Y49D02*
X7Y49D01*
X2083Y49D02*
X2090Y49D01*
X0Y48D02*
X7Y48D01*
X2083Y48D02*
X2090Y48D01*
X0Y47D02*
X7Y47D01*
X2083Y47D02*
X2090Y47D01*
X0Y46D02*
X7Y46D01*
X2083Y46D02*
X2090Y46D01*
X0Y45D02*
X7Y45D01*
X2083Y45D02*
X2090Y45D01*
X0Y44D02*
X7Y44D01*
X2083Y44D02*
X2090Y44D01*
X0Y43D02*
X7Y43D01*
X2083Y43D02*
X2090Y43D01*
X0Y42D02*
X7Y42D01*
X2083Y42D02*
X2090Y42D01*
X0Y41D02*
X7Y41D01*
X2083Y41D02*
X2090Y41D01*
X0Y40D02*
X7Y40D01*
X2083Y40D02*
X2090Y40D01*
X0Y39D02*
X7Y39D01*
X2083Y39D02*
X2090Y39D01*
X0Y38D02*
X7Y38D01*
X2083Y38D02*
X2090Y38D01*
X0Y37D02*
X7Y37D01*
X2083Y37D02*
X2090Y37D01*
X0Y36D02*
X7Y36D01*
X2083Y36D02*
X2090Y36D01*
X0Y35D02*
X7Y35D01*
X2083Y35D02*
X2090Y35D01*
X0Y34D02*
X7Y34D01*
X2083Y34D02*
X2090Y34D01*
X0Y33D02*
X7Y33D01*
X2083Y33D02*
X2090Y33D01*
X0Y32D02*
X7Y32D01*
X2083Y32D02*
X2090Y32D01*
X0Y31D02*
X7Y31D01*
X2083Y31D02*
X2090Y31D01*
X0Y30D02*
X7Y30D01*
X2083Y30D02*
X2090Y30D01*
X0Y29D02*
X7Y29D01*
X2083Y29D02*
X2090Y29D01*
X0Y28D02*
X7Y28D01*
X2083Y28D02*
X2090Y28D01*
X0Y27D02*
X7Y27D01*
X2083Y27D02*
X2090Y27D01*
X0Y26D02*
X7Y26D01*
X2083Y26D02*
X2090Y26D01*
X0Y25D02*
X7Y25D01*
X2083Y25D02*
X2090Y25D01*
X0Y24D02*
X7Y24D01*
X2083Y24D02*
X2090Y24D01*
X0Y23D02*
X7Y23D01*
X2083Y23D02*
X2090Y23D01*
X0Y22D02*
X7Y22D01*
X2083Y22D02*
X2090Y22D01*
X0Y21D02*
X7Y21D01*
X2083Y21D02*
X2090Y21D01*
X0Y20D02*
X7Y20D01*
X2083Y20D02*
X2090Y20D01*
X0Y19D02*
X7Y19D01*
X2083Y19D02*
X2090Y19D01*
X0Y18D02*
X7Y18D01*
X2083Y18D02*
X2090Y18D01*
X0Y17D02*
X7Y17D01*
X2083Y17D02*
X2090Y17D01*
X0Y16D02*
X7Y16D01*
X2083Y16D02*
X2090Y16D01*
X0Y15D02*
X7Y15D01*
X2083Y15D02*
X2090Y15D01*
X0Y14D02*
X7Y14D01*
X2083Y14D02*
X2090Y14D01*
X0Y13D02*
X7Y13D01*
X2083Y13D02*
X2090Y13D01*
X0Y12D02*
X7Y12D01*
X2083Y12D02*
X2090Y12D01*
X0Y11D02*
X7Y11D01*
X2083Y11D02*
X2090Y11D01*
X0Y10D02*
X7Y10D01*
X2083Y10D02*
X2090Y10D01*
X0Y9D02*
X2090Y9D01*
X0Y8D02*
X2090Y8D01*
X0Y7D02*
X2090Y7D01*
X0Y6D02*
X2090Y6D01*
X0Y5D02*
X2090Y5D01*
X0Y4D02*
X2090Y4D01*
X0Y3D02*
X2090Y3D01*
X0Y2D02*
X2090Y2D01*
D02*
G04 End of Silk0*
M02*