G04 MADE WITH FRITZING*
G04 WWW.FRITZING.ORG*
G04 DOUBLE SIDED*
G04 HOLES PLATED*
G04 CONTOUR ON CENTER OF CONTOUR VECTOR*
%ASAXBY*%
%FSLAX23Y23*%
%MOIN*%
%OFA0B0*%
%SFA1.0B1.0*%
%ADD10C,0.039370*%
%ADD11C,0.078000*%
%ADD12C,0.060000*%
%ADD13C,0.204724*%
%ADD14R,0.080000X0.026000*%
%ADD15R,0.086614X0.078740*%
%ADD16R,0.070866X0.106299*%
%ADD17C,0.024000*%
%ADD18R,0.001000X0.001000*%
%LNCOPPER1*%
G90*
G70*
G54D10*
X1345Y390D03*
X1132Y465D03*
G54D11*
X1920Y640D03*
X1920Y290D03*
G54D12*
X1732Y353D03*
X1732Y453D03*
X1732Y553D03*
X1732Y353D03*
X1732Y453D03*
X1732Y553D03*
G54D10*
X1257Y540D03*
G54D13*
X1382Y140D03*
X1382Y840D03*
X132Y140D03*
X132Y840D03*
G54D11*
X132Y390D03*
X132Y490D03*
X132Y590D03*
G54D14*
X582Y640D03*
X582Y590D03*
X582Y540D03*
X582Y490D03*
X582Y440D03*
X582Y390D03*
X582Y340D03*
X582Y290D03*
X824Y290D03*
X824Y340D03*
X824Y390D03*
X824Y440D03*
X824Y490D03*
X824Y540D03*
X824Y590D03*
X824Y640D03*
G54D15*
X432Y540D03*
X432Y658D03*
X432Y390D03*
X432Y272D03*
X1032Y465D03*
X1032Y347D03*
G54D16*
X1021Y640D03*
X1195Y640D03*
G54D17*
X394Y650D02*
X162Y597D01*
D02*
X394Y534D02*
X162Y495D01*
D02*
X508Y291D02*
X548Y291D01*
D02*
X470Y281D02*
X508Y291D01*
D02*
X332Y465D02*
X160Y401D01*
D02*
X496Y465D02*
X332Y465D01*
D02*
X548Y440D02*
X533Y439D01*
D02*
X533Y439D02*
X496Y465D01*
D02*
X508Y590D02*
X470Y565D01*
D02*
X548Y590D02*
X508Y590D01*
D02*
X508Y641D02*
X548Y640D01*
D02*
X470Y650D02*
X508Y641D01*
D02*
X508Y341D02*
X470Y366D01*
D02*
X548Y341D02*
X508Y341D01*
D02*
X695Y641D02*
X617Y640D01*
D02*
X720Y341D02*
X719Y603D01*
D02*
X683Y291D02*
X720Y341D01*
D02*
X719Y603D02*
X695Y641D01*
D02*
X617Y290D02*
X683Y291D01*
D02*
X670Y378D02*
X645Y341D01*
D02*
X669Y553D02*
X670Y378D01*
D02*
X617Y590D02*
X644Y590D01*
D02*
X645Y341D02*
X617Y340D01*
D02*
X644Y590D02*
X669Y553D01*
D02*
X992Y640D02*
X859Y640D01*
D02*
X1002Y499D02*
X920Y590D01*
D02*
X920Y590D02*
X859Y590D01*
D02*
X894Y541D02*
X933Y489D01*
D02*
X933Y489D02*
X933Y427D01*
D02*
X933Y427D02*
X994Y378D01*
D02*
X859Y540D02*
X894Y541D01*
D02*
X1257Y540D02*
X1195Y640D01*
D02*
X1070Y316D02*
X1032Y347D01*
D02*
X1344Y316D02*
X1070Y316D01*
D02*
X1344Y371D02*
X1344Y316D01*
D02*
X1345Y409D02*
X1344Y553D01*
D02*
X1344Y553D02*
X1701Y553D01*
D02*
X1113Y466D02*
X1119Y466D01*
D02*
X1119Y466D02*
X1070Y465D01*
G54D18*
X1695Y583D02*
X1768Y583D01*
X1692Y582D02*
X1771Y582D01*
X1689Y581D02*
X1774Y581D01*
X1687Y580D02*
X1776Y580D01*
X1686Y579D02*
X1777Y579D01*
X1684Y578D02*
X1779Y578D01*
X1683Y577D02*
X1780Y577D01*
X1682Y576D02*
X1781Y576D01*
X1681Y575D02*
X1782Y575D01*
X1680Y574D02*
X1783Y574D01*
X1679Y573D02*
X1725Y573D01*
X1737Y573D02*
X1784Y573D01*
X1678Y572D02*
X1723Y572D01*
X1740Y572D02*
X1785Y572D01*
X1677Y571D02*
X1721Y571D01*
X1742Y571D02*
X1786Y571D01*
X1677Y570D02*
X1719Y570D01*
X1744Y570D02*
X1786Y570D01*
X1676Y569D02*
X1718Y569D01*
X1745Y569D02*
X1787Y569D01*
X1675Y568D02*
X1717Y568D01*
X1746Y568D02*
X1787Y568D01*
X1675Y567D02*
X1716Y567D01*
X1747Y567D02*
X1788Y567D01*
X1675Y566D02*
X1715Y566D01*
X1748Y566D02*
X1788Y566D01*
X1674Y565D02*
X1714Y565D01*
X1749Y565D02*
X1789Y565D01*
X1674Y564D02*
X1714Y564D01*
X1749Y564D02*
X1789Y564D01*
X1673Y563D02*
X1713Y563D01*
X1750Y563D02*
X1789Y563D01*
X1673Y562D02*
X1713Y562D01*
X1750Y562D02*
X1790Y562D01*
X1673Y561D02*
X1712Y561D01*
X1751Y561D02*
X1790Y561D01*
X1673Y560D02*
X1712Y560D01*
X1751Y560D02*
X1790Y560D01*
X1672Y559D02*
X1712Y559D01*
X1751Y559D02*
X1790Y559D01*
X1672Y558D02*
X1711Y558D01*
X1751Y558D02*
X1791Y558D01*
X1672Y557D02*
X1711Y557D01*
X1752Y557D02*
X1791Y557D01*
X1672Y556D02*
X1711Y556D01*
X1752Y556D02*
X1791Y556D01*
X1672Y555D02*
X1711Y555D01*
X1752Y555D02*
X1791Y555D01*
X1672Y554D02*
X1711Y554D01*
X1752Y554D02*
X1791Y554D01*
X1672Y553D02*
X1711Y553D01*
X1752Y553D02*
X1791Y553D01*
X1672Y552D02*
X1711Y552D01*
X1752Y552D02*
X1791Y552D01*
X1672Y551D02*
X1711Y551D01*
X1752Y551D02*
X1791Y551D01*
X1672Y550D02*
X1711Y550D01*
X1752Y550D02*
X1791Y550D01*
X1672Y549D02*
X1712Y549D01*
X1751Y549D02*
X1790Y549D01*
X1673Y548D02*
X1712Y548D01*
X1751Y548D02*
X1790Y548D01*
X1673Y547D02*
X1712Y547D01*
X1751Y547D02*
X1790Y547D01*
X1673Y546D02*
X1713Y546D01*
X1750Y546D02*
X1790Y546D01*
X1673Y545D02*
X1713Y545D01*
X1750Y545D02*
X1790Y545D01*
X1674Y544D02*
X1714Y544D01*
X1749Y544D02*
X1789Y544D01*
X1674Y543D02*
X1714Y543D01*
X1749Y543D02*
X1789Y543D01*
X1674Y542D02*
X1715Y542D01*
X1748Y542D02*
X1788Y542D01*
X1675Y541D02*
X1716Y541D01*
X1747Y541D02*
X1788Y541D01*
X1675Y540D02*
X1717Y540D01*
X1746Y540D02*
X1787Y540D01*
X1676Y539D02*
X1718Y539D01*
X1745Y539D02*
X1787Y539D01*
X1677Y538D02*
X1719Y538D01*
X1744Y538D02*
X1786Y538D01*
X1677Y537D02*
X1720Y537D01*
X1743Y537D02*
X1786Y537D01*
X1678Y536D02*
X1722Y536D01*
X1741Y536D02*
X1785Y536D01*
X1679Y535D02*
X1725Y535D01*
X1738Y535D02*
X1784Y535D01*
X1680Y534D02*
X1730Y534D01*
X1733Y534D02*
X1783Y534D01*
X1680Y533D02*
X1782Y533D01*
X1681Y532D02*
X1781Y532D01*
X1683Y531D02*
X1780Y531D01*
X1684Y530D02*
X1779Y530D01*
X1685Y529D02*
X1778Y529D01*
X1687Y528D02*
X1776Y528D01*
X1689Y527D02*
X1774Y527D01*
X1691Y526D02*
X1772Y526D01*
X1694Y525D02*
X1769Y525D01*
X1700Y524D02*
X1763Y524D01*
X1695Y483D02*
X1768Y483D01*
X1691Y482D02*
X1771Y482D01*
X1689Y481D02*
X1774Y481D01*
X1687Y480D02*
X1776Y480D01*
X1685Y479D02*
X1777Y479D01*
X1684Y478D02*
X1779Y478D01*
X1683Y477D02*
X1780Y477D01*
X1682Y476D02*
X1781Y476D01*
X1681Y475D02*
X1782Y475D01*
X1680Y474D02*
X1783Y474D01*
X1679Y473D02*
X1725Y473D01*
X1738Y473D02*
X1784Y473D01*
X1678Y472D02*
X1722Y472D01*
X1740Y472D02*
X1785Y472D01*
X1677Y471D02*
X1721Y471D01*
X1742Y471D02*
X1786Y471D01*
X1677Y470D02*
X1719Y470D01*
X1744Y470D02*
X1786Y470D01*
X1676Y469D02*
X1718Y469D01*
X1745Y469D02*
X1787Y469D01*
X1675Y468D02*
X1717Y468D01*
X1746Y468D02*
X1787Y468D01*
X1675Y467D02*
X1716Y467D01*
X1747Y467D02*
X1788Y467D01*
X1674Y466D02*
X1715Y466D01*
X1748Y466D02*
X1788Y466D01*
X1674Y465D02*
X1714Y465D01*
X1749Y465D02*
X1789Y465D01*
X1674Y464D02*
X1714Y464D01*
X1749Y464D02*
X1789Y464D01*
X1673Y463D02*
X1713Y463D01*
X1750Y463D02*
X1790Y463D01*
X1673Y462D02*
X1713Y462D01*
X1750Y462D02*
X1790Y462D01*
X1673Y461D02*
X1712Y461D01*
X1751Y461D02*
X1790Y461D01*
X1673Y460D02*
X1712Y460D01*
X1751Y460D02*
X1790Y460D01*
X1672Y459D02*
X1712Y459D01*
X1751Y459D02*
X1790Y459D01*
X1672Y458D02*
X1711Y458D01*
X1751Y458D02*
X1791Y458D01*
X1672Y457D02*
X1711Y457D01*
X1752Y457D02*
X1791Y457D01*
X1672Y456D02*
X1711Y456D01*
X1752Y456D02*
X1791Y456D01*
X1672Y455D02*
X1711Y455D01*
X1752Y455D02*
X1791Y455D01*
X1672Y454D02*
X1711Y454D01*
X1752Y454D02*
X1791Y454D01*
X1672Y453D02*
X1711Y453D01*
X1752Y453D02*
X1791Y453D01*
X1672Y452D02*
X1711Y452D01*
X1752Y452D02*
X1791Y452D01*
X1672Y451D02*
X1711Y451D01*
X1752Y451D02*
X1791Y451D01*
X1672Y450D02*
X1711Y450D01*
X1751Y450D02*
X1791Y450D01*
X1672Y449D02*
X1712Y449D01*
X1751Y449D02*
X1790Y449D01*
X1673Y448D02*
X1712Y448D01*
X1751Y448D02*
X1790Y448D01*
X1673Y447D02*
X1712Y447D01*
X1751Y447D02*
X1790Y447D01*
X1673Y446D02*
X1713Y446D01*
X1750Y446D02*
X1790Y446D01*
X1673Y445D02*
X1713Y445D01*
X1750Y445D02*
X1790Y445D01*
X1674Y444D02*
X1714Y444D01*
X1749Y444D02*
X1789Y444D01*
X1674Y443D02*
X1714Y443D01*
X1749Y443D02*
X1789Y443D01*
X1674Y442D02*
X1715Y442D01*
X1748Y442D02*
X1788Y442D01*
X1675Y441D02*
X1716Y441D01*
X1747Y441D02*
X1788Y441D01*
X1675Y440D02*
X1717Y440D01*
X1746Y440D02*
X1787Y440D01*
X1676Y439D02*
X1718Y439D01*
X1745Y439D02*
X1787Y439D01*
X1677Y438D02*
X1719Y438D01*
X1744Y438D02*
X1786Y438D01*
X1677Y437D02*
X1720Y437D01*
X1742Y437D02*
X1786Y437D01*
X1678Y436D02*
X1722Y436D01*
X1741Y436D02*
X1785Y436D01*
X1679Y435D02*
X1725Y435D01*
X1738Y435D02*
X1784Y435D01*
X1680Y434D02*
X1783Y434D01*
X1680Y433D02*
X1782Y433D01*
X1682Y432D02*
X1781Y432D01*
X1683Y431D02*
X1780Y431D01*
X1684Y430D02*
X1779Y430D01*
X1685Y429D02*
X1778Y429D01*
X1687Y428D02*
X1776Y428D01*
X1689Y427D02*
X1774Y427D01*
X1691Y426D02*
X1772Y426D01*
X1694Y425D02*
X1769Y425D01*
X1701Y424D02*
X1762Y424D01*
X1694Y383D02*
X1768Y383D01*
X1691Y382D02*
X1772Y382D01*
X1689Y381D02*
X1774Y381D01*
X1687Y380D02*
X1776Y380D01*
X1685Y379D02*
X1777Y379D01*
X1684Y378D02*
X1779Y378D01*
X1683Y377D02*
X1780Y377D01*
X1682Y376D02*
X1781Y376D01*
X1681Y375D02*
X1782Y375D01*
X1680Y374D02*
X1783Y374D01*
X1679Y373D02*
X1725Y373D01*
X1738Y373D02*
X1784Y373D01*
X1678Y372D02*
X1722Y372D01*
X1740Y372D02*
X1785Y372D01*
X1677Y371D02*
X1721Y371D01*
X1742Y371D02*
X1786Y371D01*
X1677Y370D02*
X1719Y370D01*
X1744Y370D02*
X1786Y370D01*
X1676Y369D02*
X1718Y369D01*
X1745Y369D02*
X1787Y369D01*
X1675Y368D02*
X1717Y368D01*
X1746Y368D02*
X1787Y368D01*
X1675Y367D02*
X1716Y367D01*
X1747Y367D02*
X1788Y367D01*
X1674Y366D02*
X1715Y366D01*
X1748Y366D02*
X1788Y366D01*
X1674Y365D02*
X1714Y365D01*
X1749Y365D02*
X1789Y365D01*
X1674Y364D02*
X1714Y364D01*
X1749Y364D02*
X1789Y364D01*
X1673Y363D02*
X1713Y363D01*
X1750Y363D02*
X1790Y363D01*
X1673Y362D02*
X1713Y362D01*
X1750Y362D02*
X1790Y362D01*
X1673Y361D02*
X1712Y361D01*
X1751Y361D02*
X1790Y361D01*
X1673Y360D02*
X1712Y360D01*
X1751Y360D02*
X1790Y360D01*
X1672Y359D02*
X1712Y359D01*
X1751Y359D02*
X1790Y359D01*
X1672Y358D02*
X1711Y358D01*
X1751Y358D02*
X1791Y358D01*
X1672Y357D02*
X1711Y357D01*
X1752Y357D02*
X1791Y357D01*
X1672Y356D02*
X1711Y356D01*
X1752Y356D02*
X1791Y356D01*
X1672Y355D02*
X1711Y355D01*
X1752Y355D02*
X1791Y355D01*
X1672Y354D02*
X1711Y354D01*
X1752Y354D02*
X1791Y354D01*
X1672Y353D02*
X1711Y353D01*
X1752Y353D02*
X1791Y353D01*
X1672Y352D02*
X1711Y352D01*
X1752Y352D02*
X1791Y352D01*
X1672Y351D02*
X1711Y351D01*
X1752Y351D02*
X1791Y351D01*
X1672Y350D02*
X1711Y350D01*
X1751Y350D02*
X1791Y350D01*
X1672Y349D02*
X1712Y349D01*
X1751Y349D02*
X1790Y349D01*
X1673Y348D02*
X1712Y348D01*
X1751Y348D02*
X1790Y348D01*
X1673Y347D02*
X1712Y347D01*
X1751Y347D02*
X1790Y347D01*
X1673Y346D02*
X1713Y346D01*
X1750Y346D02*
X1790Y346D01*
X1673Y345D02*
X1713Y345D01*
X1750Y345D02*
X1790Y345D01*
X1674Y344D02*
X1714Y344D01*
X1749Y344D02*
X1789Y344D01*
X1674Y343D02*
X1714Y343D01*
X1749Y343D02*
X1789Y343D01*
X1674Y342D02*
X1715Y342D01*
X1748Y342D02*
X1788Y342D01*
X1675Y341D02*
X1716Y341D01*
X1747Y341D02*
X1788Y341D01*
X1675Y340D02*
X1717Y340D01*
X1746Y340D02*
X1787Y340D01*
X1676Y339D02*
X1718Y339D01*
X1745Y339D02*
X1787Y339D01*
X1677Y338D02*
X1719Y338D01*
X1744Y338D02*
X1786Y338D01*
X1677Y337D02*
X1721Y337D01*
X1742Y337D02*
X1786Y337D01*
X1678Y336D02*
X1722Y336D01*
X1740Y336D02*
X1785Y336D01*
X1679Y335D02*
X1725Y335D01*
X1738Y335D02*
X1784Y335D01*
X1680Y334D02*
X1783Y334D01*
X1681Y333D02*
X1782Y333D01*
X1682Y332D02*
X1781Y332D01*
X1683Y331D02*
X1780Y331D01*
X1684Y330D02*
X1779Y330D01*
X1685Y329D02*
X1777Y329D01*
X1687Y328D02*
X1776Y328D01*
X1689Y327D02*
X1774Y327D01*
X1691Y326D02*
X1772Y326D01*
X1694Y325D02*
X1768Y325D01*
D02*
G04 End of Copper1*
M02*